<?xml version="1.0" encoding="utf-8"?>
<!-- Generator: Adobe Illustrator 25.0.0, SVG Export Plug-In . SVG Version: 6.00 Build 0)  -->
<svg version="1.1" xmlns="http://www.w3.org/2000/svg" xmlns:xlink="http://www.w3.org/1999/xlink" x="0px" y="0px"
	 viewBox="0 0 500 500" style="enable-background:new 0 0 500 500;" xml:space="preserve">
<style type="text/css">
	.st0{fill:#efefef;}
	.st1{fill:#37474F;}
	.st2{fill:#263238;}
	.st3{fill:#455A64;}
	.st4{opacity:0.15;}

	.st5{fill:#27DEBF;
	animation: animacionColor 15s ease infinite alternate;
}

	@keyframes animacionColor {

0% {fill:#27DEBF}
50% {fill: #367c99b0}
	}

	.st6{opacity:0.1;}
	.st7{fill:none;stroke:#37474F;stroke-width:1.0232;stroke-linecap:round;stroke-linejoin:round;stroke-miterlimit:10;}
	.st8{opacity:0.25;}
	.st9{opacity:0.35;}
	.st10{opacity:0.3;}
	.st11{opacity:0.5;fill:#FFFFFF;}
	.st12{opacity:0.05;}
	.st13{fill:none;stroke:#37474F;stroke-width:1.2048;stroke-linecap:round;stroke-linejoin:round;stroke-miterlimit:10;}
	.st14{opacity:0.7;fill:#FFFFFF;}
	.st15{opacity:0.8;fill:#FFFFFF;}
	.st16{opacity:0.2;fill:#FFFFFF;}
	.st17{opacity:0.2;}
	.st18{opacity:0.6;fill:#FFFFFF;}
	.st19{opacity:0.3;fill:#FFFFFF;}
	.st20{fill:#E0E0E0;}
	.st21{opacity:0.4;}
	.st22{opacity:0.4;fill:#FFFFFF;}

	<!-- PUEDO ESCRIBIR LENGUAJE CSS  EN STYLE EN UN SVG -->

	#Floor {
		stroke: #e2e2e2;
		stroke-width: 1vh;
		transform-origin: center center;

		animation: ancho 5s ease infinite alternate;
	}

	@keyframes ancho {
		from {
      transform: scale(1,1);

}
to { transform: scale(1.05,1.05);
}
}

#Speech_Bubble {
	transform: translate(0,0);
	animation: moverCartel 6s ease infinite alternate;}
  
  @keyframes moverCartel {
  from {
	transform: translate (0, 0);
	opacity: 1;

  }
	
  to {
	transform: translate(60px, -10px);
	opacity: 0;
  }
	
  }

#tuerca2 {
	animation: girarTuerca 3s ease infinite alternate;
	transform-origin: center center;
}

@keyframes girarTuerca {

	0%{
		transform: rotate(0deg);
		<!-- translate(10px, 0px); -->
	}

	100%{
		transform: rotate(-4deg);
		<!-- translate(10px, 0px); -->
	}
}

#_x34_04_Error {
	animation: girarError 3s ease infinite alternate;
	transform-origin: center center;
}

@keyframes girarError {


	0%{
		transform: rotate(0deg)
		translate(10px, 0px);
	}

	100%{
		transform: rotate(3deg)
		translate(10px, 0px);
		
	}
}

#tuerca1 {
	animation: girarTuerca1 6s ease infinite alternate;
	transform-origin: center center;
}

@keyframes girarTuerca1 {

	0%{
		transform: rotate(0deg);
		<!-- translate(10px, 0px); -->
	}

	100%{
		transform: rotate(-4deg);
		<!-- translate(10px, 0px); -->
	}
}


<!-- #mano {
	animation: moverMano 10s linear infinite;
	transform-origin: center center;
  }
  
  @keyframes moverMano {
  
  
	  0%{
		  transform:rotate (0deg);
  }
  
	  50%{
		  transform:rotate (-10deg);
  
  }
  
	  70%{
		  transform:rotate (0deg);
  }
  } -->

</style>
<g id="Floor">
	<ellipse id="Floor_4_" class="st0" cx="250" cy="346.54" rx="222.67" ry="128.63"/>
</g>
<g id="Gears">
</g>
<g id="tuerca2">
	<g id="Gears_1_">
		<g>
			<path class="st1" d="M205.67,369.57l0-4.77c0-0.55-0.45-1.03-1-1.06l-7.59-0.48l0-10.67l-0.01,0c0.01-0.22-0.11-0.43-0.37-0.58
				l-8.01-4.62c-0.48-0.28-1.27-0.31-1.77-0.08l-8.12,3.76c-0.5,0.23-1.33,0.28-1.86,0.11c-2.02-0.63-4.13-1.13-6.3-1.5
				c-0.54-0.09-1.07-0.6-1.17-1.14l-1.02-5.35c-0.1-0.54-0.63-0.98-1.19-0.98l-11.77,0c-0.55,0-1.08,0.44-1.19,0.98l-1.01,5.35
				c-0.1,0.54-0.63,1.05-1.17,1.14c-2.17,0.37-4.28,0.87-6.3,1.5c-0.53,0.16-1.36,0.12-1.86-0.11l-8.11-3.76
				c-0.5-0.23-1.29-0.2-1.77,0.08l-8.01,4.62c-0.26,0.15-0.38,0.36-0.37,0.57c0,0,0-0.01-0.01-0.01l0.01,10.69l-7.6,0.48
				c-0.55,0.03-1,0.51-1,1.06l0,5.95c0,0,0,0,0,0l0,4.17l0,0l0,5.95l0,0v0.01c0,0.13,0.09,0.22,0.14,0.34
				c0.05,0.13,0.06,0.28,0.16,0.38c0.13,0.14,0.32,0.19,0.51,0.24c0.07,0.02,0.12,0.09,0.19,0.09l0.14,0.01l7.45,0.47l0,0l0,6.14h0
				l0,0.01l0,0.11l0,1.9l0,2.55l0,0c0,0.01,0.01,0.02,0.01,0.03c0.01,0.07,0.02,0.14,0.06,0.21c0,0,0.01,0.01,0.02,0.01
				c0.06,0.1,0.15,0.2,0.28,0.27l8.01,4.62c0,0,0.01,0,0.02,0c0.21,0.12,0.48,0.18,0.77,0.2c0.08,0.01,0.13,0,0.21,0
				c0.1,0,0.19,0.02,0.28,0.01v-0.05c0.17-0.02,0.35-0.02,0.49-0.08l8.12-3.76c0.5-0.23,1.33-0.28,1.86-0.11
				c2.02,0.63,4.13,1.13,6.3,1.5c0.54,0.09,1.07,0.6,1.17,1.14l1.02,5.35c0.02,0.13,0.13,0.21,0.2,0.32v0.12
				c0.04,0.06,0.11,0.1,0.17,0.15c0.05,0.05,0.09,0.09,0.15,0.14c0.2,0.15,0.43,0.25,0.67,0.25l11.77,0c0.27,0,0.53-0.11,0.75-0.28
				l0,0c0.22-0.18,0.39-0.42,0.44-0.7l1.02-5.35c0.1-0.54,0.63-1.05,1.17-1.14c2.17-0.37,4.28-0.87,6.3-1.5
				c0.53-0.16,1.36-0.12,1.86,0.11l8.12,3.76c0.21,0.1,0.48,0.14,0.76,0.14l0-0.02c0.37,0.01,0.74-0.05,1.01-0.21l8.01-4.62
				c0.25-0.14,0.37-0.34,0.37-0.54l0,0l0-10.7l7.59-0.48c0.55-0.04,1-0.51,1-1.06l0.02-11.11
				C205.7,369.71,205.69,369.64,205.67,369.57z M176.49,374.56c-0.48,0.36-1,0.7-1.56,1.03c-7.47,4.31-19.58,4.31-27.05,0
				c-0.57-0.33-1.09-0.67-1.57-1.03c0.48-0.34,1.01-0.67,1.57-1c7.47-4.31,19.58-4.31,27.05,0
				C175.49,373.89,176.01,374.22,176.49,374.56z"/>
			<path class="st2" d="M205.7,369.78l-0.02,11.11c0,0.55-0.45,1.03-1,1.06l-7.59,0.48v10.7c-0.01,0.21-0.12,0.4-0.37,0.55
				l-8.01,4.62c-0.27,0.16-0.64,0.22-1.01,0.21v0.02c-0.28-0.01-0.54-0.04-0.76-0.15l-8.12-3.76c-0.21-0.1-0.49-0.16-0.76-0.18
				v-0.01c-0.38-0.04-0.79-0.02-1.09,0.08c-2.02,0.63-4.14,1.13-6.3,1.5c-0.17,0.03-0.34,0.1-0.5,0.21v0.06
				c-0.33,0.22-0.61,0.51-0.68,0.88l-1.02,5.35c-0.05,0.28-0.22,0.52-0.44,0.7v0.01c-0.21,0.17-0.48,0.28-0.75,0.28l-11.77,0.01
				c-0.08-0.01-0.15-0.02-0.22-0.03c-0.31-0.06-0.59-0.25-0.77-0.51v-0.12c-0.06-0.11-0.17-0.19-0.19-0.32l-1.02-5.35
				c-0.05-0.29-0.24-0.56-0.48-0.77v-0.02c-0.2-0.18-0.45-0.31-0.7-0.36c-2.16-0.37-4.28-0.87-6.3-1.5
				c-0.34-0.1-0.81-0.12-1.24-0.06v0.03c-0.22,0.04-0.45,0.06-0.62,0.14l-8.12,3.76c-0.14,0.06-0.32,0.06-0.49,0.08v0.05h-0.01
				c-0.44,0.05-0.93-0.02-1.27-0.21c0,0-0.01,0-0.01-0.01l-8-4.62c-0.07-0.04-0.12-0.09-0.17-0.13c-0.05-0.05-0.1-0.1-0.13-0.16
				c-0.04-0.08-0.06-0.16-0.07-0.24c0,0,0-0.01,0-0.01l-0.01-2.55v-2.02l0.01-6.14l-1.39-0.09l-6.07-0.38l-0.14-0.01
				c-0.01,0-0.01,0-0.01,0c-0.54-0.04-0.98-0.5-0.99-1.04v-10.15c0,0.55,0.44,1.03,0.99,1.06l10.67,0.68
				c0.55,0.04,1.18,0.48,1.44,0.96c0.58,1.08,1.34,2.13,2.27,3.15c0.37,0.41,0.33,0.98-0.12,1.3l-6.34,4.56
				c-0.45,0.32-0.43,0.81,0.05,1.09l8,4.62c0.48,0.28,1.27,0.31,1.77,0.08l8.11-3.76c0.5-0.23,1.33-0.28,1.86-0.11
				c2.02,0.63,4.13,1.13,6.3,1.5c0.55,0.09,1.07,0.59,1.17,1.14l1.02,5.35c0.1,0.54,0.63,0.98,1.18,0.98h11.77
				c0.55,0,1.08-0.44,1.18-0.98l1.02-5.35c0.1-0.54,0.63-1.04,1.17-1.14c2.17-0.37,4.28-0.87,6.31-1.5
				c0.52-0.16,1.35-0.12,1.85,0.11l8.12,3.76c0.5,0.23,1.29,0.2,1.77-0.08l8.01-4.62c0.48-0.28,0.5-0.76,0.05-1.08l-6.35-4.57
				c-0.44-0.32-0.49-0.89-0.11-1.3c0.92-1.01,1.68-2.07,2.27-3.14c0.26-0.48,0.89-0.92,1.44-0.96l10.67-0.67
				c0.55-0.04,1-0.51,1-1.07v-1.19C205.69,369.64,205.7,369.71,205.7,369.78z"/>
			<path class="st2" d="M197.08,352.6v10.66l-3.08-0.19c-0.55-0.03-1.18-0.47-1.44-0.96c-0.59-1.08-1.34-2.13-2.27-3.14
				c-0.37-0.41-0.34-0.98,0.11-1.3l6.35-4.56C196.96,352.95,197.07,352.78,197.08,352.6L197.08,352.6z"/>
			<path class="st2" d="M132.5,358.97c-0.93,1.02-1.68,2.07-2.27,3.14c-0.26,0.49-0.89,0.92-1.44,0.96l-3.07,0.19l-0.01-10.69
				c0.01,0.18,0.11,0.37,0.32,0.52l6.34,4.56C132.83,357.99,132.87,358.56,132.5,358.97z"/>
			<path id="XMLID_17_" class="st3" d="M134.1,347.39l-8.01,4.62c-0.48,0.28-0.5,0.76-0.05,1.08l6.34,4.57
				c0.45,0.32,0.49,0.9,0.12,1.3c-0.93,1.01-1.68,2.07-2.27,3.14c-0.26,0.48-0.89,0.92-1.44,0.96l-10.67,0.67
				c-0.55,0.03-1,0.51-1,1.06v5.95c0,0.55,0.45,1.03,1,1.06l10.67,0.68c0.55,0.03,1.18,0.47,1.44,0.96
				c0.58,1.08,1.34,2.13,2.27,3.14c0.37,0.41,0.33,0.98-0.12,1.3l-6.34,4.57c-0.45,0.32-0.42,0.81,0.05,1.08l8.01,4.62
				c0.48,0.28,1.27,0.31,1.77,0.08l8.12-3.76c0.5-0.23,1.33-0.28,1.86-0.11c2.02,0.63,4.13,1.13,6.3,1.5
				c0.54,0.09,1.07,0.6,1.17,1.14l1.02,5.35c0.1,0.54,0.63,0.98,1.19,0.98l11.77,0c0.55,0,1.08-0.44,1.19-0.98l1.02-5.35
				c0.1-0.54,0.63-1.05,1.17-1.14c2.17-0.37,4.28-0.87,6.3-1.5c0.53-0.16,1.36-0.12,1.86,0.11l8.11,3.76
				c0.5,0.23,1.29,0.2,1.77-0.08l8.01-4.62c0.48-0.28,0.5-0.76,0.05-1.08l-6.34-4.57c-0.45-0.32-0.49-0.9-0.12-1.3
				c0.93-1.01,1.68-2.07,2.27-3.14c0.26-0.48,0.89-0.92,1.44-0.96l10.67-0.68c0.55-0.03,1-0.51,1-1.06l0-5.95
				c0-0.55-0.45-1.03-1-1.06l-10.67-0.68c-0.55-0.03-1.18-0.47-1.44-0.96c-0.59-1.08-1.34-2.13-2.27-3.14
				c-0.37-0.41-0.33-0.98,0.12-1.3l6.34-4.57c0.45-0.32,0.42-0.81-0.05-1.08l-8.01-4.62c-0.48-0.28-1.27-0.31-1.77-0.08l-8.12,3.76
				c-0.5,0.23-1.33,0.28-1.86,0.11c-2.02-0.63-4.13-1.13-6.3-1.5c-0.54-0.09-1.07-0.6-1.17-1.14l-1.02-5.35
				c-0.1-0.54-0.63-0.98-1.19-0.98l-11.77,0c-0.55,0-1.08,0.44-1.19,0.98l-1.01,5.35c-0.1,0.54-0.63,1.05-1.17,1.14
				c-2.17,0.37-4.28,0.87-6.3,1.5c-0.53,0.16-1.36,0.12-1.86-0.11l-8.12-3.76C135.37,347.08,134.58,347.12,134.1,347.39z
				 M174.93,359.97c7.47,4.31,7.47,11.31,0,15.62c-7.47,4.31-19.58,4.31-27.05,0c-7.47-4.31-7.47-11.3,0-15.62
				C155.35,355.66,167.46,355.66,174.93,359.97z"/>
			<path class="st1" d="M125.72,382.99c0-0.19,0.11-0.38,0.32-0.54l3.19-2.3v-7.56c-0.15-0.06-0.3-0.1-0.44-0.11l-10.67-0.68
				c-0.55-0.03-0.99-0.51-0.99-1.06v10.15c0.01,0.55,0.45,1.01,0.99,1.04c0,0,0,0,0.01,0l0.14,0.01l6.07,0.38l1.39,0.09
				C125.72,382.44,125.72,383.2,125.72,382.99z"/>
			<path class="st1" d="M144.6,384.32c-0.22,0.03-0.44,0.08-0.61,0.16l-8.11,3.76c-0.29,0.13-0.67,0.17-1.04,0.13v10.14
				c0.18,0.02,0.37,0.02,0.54,0h0.01v-0.05c0.17-0.02,0.36-0.02,0.49-0.08l8.12-3.76c0.17-0.08,0.39-0.1,0.61-0.14V384.32z"/>
			<path class="st1" d="M154.48,392.74c-0.07-0.12-0.13-0.25-0.15-0.38l-1.02-5.35c-0.03-0.14-0.08-0.28-0.16-0.41v10.15
				c0.08,0.12,0.13,0.26,0.16,0.4l1.02,5.35c0.02,0.1,0.09,0.17,0.15,0.26V392.74z"/>
			<path class="st4" d="M169.65,386.61c-0.08,0.13-0.13,0.26-0.16,0.4l-1.02,5.35c-0.03,0.14-0.08,0.27-0.15,0.39v10.13
				c0.07-0.12,0.13-0.24,0.15-0.38l1.02-5.35c0.02-0.13,0.08-0.25,0.16-0.36V386.61z"/>
			<path class="st4" d="M187.97,388.37c-0.37,0.04-0.75,0-1.04-0.13l-8.12-3.76c-0.17-0.08-0.39-0.13-0.61-0.16v10.14
				c0.22,0.03,0.44,0.08,0.61,0.16l8.12,3.76c0.22,0.1,0.48,0.14,0.76,0.15v-0.02c0.09,0,0.19,0,0.28-0.01V388.37z"/>
			<path class="st4" d="M204.68,371.82l-10.67,0.67c-0.14,0.01-0.29,0.05-0.44,0.11v7.56l3.2,2.3c0.21,0.15,0.32,0.35,0.32,0.53
				c0,0.2,0-0.57,0-0.57l7.59-0.48c0.55-0.03,1-0.51,1-1.06l0.02-11.11c0-0.08-0.01-0.15-0.03-0.22v1.19
				C205.67,371.31,205.23,371.78,204.68,371.82z"/>
		</g>
	</g>
</g>
<g id="tuerca1">
	<g>
		<path class="st1" d="M44.54,334.49c0,0.45,0.01,8.83,0.01,9.07c0,0.08,0.03,0.15,0.08,0.23l3.57,4.97c0.21,0.3,0.79,0.47,1.3,0.39
			l8.22-1.39c0.51-0.08,1.16,0.03,1.47,0.26c0.63,0.45,1.3,0.87,2,1.27c0,0-0.01,6.67,0.01,6.82c0.03,0.24,0.2,0.43,0.46,0.49
			l8.95,2.14c0.42,0.1,1.07-0.14,1.44-0.53l3.69-3.88c0.37-0.39,1.04-0.68,1.51-0.65c1.84,0.12,3.73,0.12,5.61,0.01
			c0.49-0.03,1.1,0.15,1.35,0.42l4.12,4.33c0.26,0.27,0.88,0.39,1.39,0.26l8.6-2.06c0.43-0.1,0.69-0.37,0.68-0.65l-0.01-6.72
			c0.59-0.34,1.15-0.69,1.68-1.07c0.47-0.32,1.18-0.53,1.62-0.46l8.48,1.43c0.43,0.07,1.03-0.21,1.34-0.63l3.24-4.52
			c0.13-0.18,0.19-0.37,0.18-0.53c-0.01-0.15-0.01-2.82-0.01-6.53c0.04-0.07,0.07-0.14,0.07-0.21c0-0.08-0.02-12.15-0.02-12.91
			c0-0.01,0-0.02,0-0.04c0-0.08-0.03-0.15-0.08-0.22l-3.57-4.97c-0.21-0.29-0.79-0.47-1.31-0.38l-8.21,1.38
			c-0.51,0.08-1.16-0.03-1.47-0.25c-0.63-0.45-1.29-0.87-1.99-1.27c0-3.11-0.01-6.31-0.01-6.68c0-0.01,0-0.02,0-0.03
			c0-0.28-0.17-0.52-0.46-0.59l-8.95-2.14c-0.42-0.1-1.06,0.13-1.44,0.53l-3.69,3.88c-0.38,0.4-1.05,0.69-1.51,0.66
			c-1.84-0.12-3.72-0.13-5.61-0.01c-0.49,0.03-1.1-0.15-1.35-0.42l-4.12-4.33c-0.25-0.27-0.88-0.39-1.39-0.26l-8.61,2.06
			c-0.42,0.1-0.68,0.36-0.67,0.63l-0.01-0.01l0.01,6.74c-0.59,0.34-1.15,0.69-1.68,1.06c-0.47,0.32-1.18,0.54-1.62,0.46l-8.48-1.42
			c-0.43-0.07-1.03,0.21-1.34,0.63l-3.24,4.52c-0.12,0.17-0.18,0.35-0.18,0.5c0,0.01,0,0.01,0,0.02c0,0.4,0,6.73,0.01,10.39l0,0
			c-0.04,0.06-0.05,0.13-0.06,0.2l0,0l0,0C44.53,334.48,44.53,334.48,44.54,334.49C44.53,334.49,44.53,334.49,44.54,334.49z
			 M91.12,335.61c-1.41,0.81-3.1,1.47-5.05,1.93c-6.02,1.44-12.71,0.56-17.07-1.92c-0.48-0.27-0.93-0.56-1.35-0.88
			c0.38-0.27,0.8-0.54,1.25-0.8c6.15-3.55,16.11-3.55,22.26,0c0.46,0.27,0.89,0.54,1.28,0.81
			C92.03,335.05,91.59,335.34,91.12,335.61z"/>
		<path class="st2" d="M96.95,317.08c0.69,0.32,1.35,0.66,1.98,1.01c0-3.12-0.01-6.31-0.01-6.69c-0.01,0.11-0.04,0.23-0.1,0.35
			L96.68,316C96.47,316.43,96.59,316.91,96.95,317.08z"/>
		<path class="st4" d="M106.82,327.7c0.16,0.94,0.15,1.87,0.01,2.8c-0.06,0.42,0.18,0.86,0.57,0.99l7.74,2.45
			c0.23,0.08,0.36,0.26,0.36,0.49c-0.01,0.16,0,2.52,0,2.52c0.04-0.06,0.06-0.12,0.06-0.19c-0.01-4.4-0.02-11.75-0.02-12.39v-0.54
			c-0.01,0.23-0.25,0.46-0.62,0.58l-7.31,2.32C107.1,326.9,106.76,327.33,106.82,327.7z"/>
		<path class="st4" d="M101.97,338.65v9.09c0.11-0.01,0.22-0.01,0.31,0.01l8.48,1.42c0.13,0.02,0.28,0.01,0.43-0.04v-9.07
			c-0.16,0.04-0.31,0.05-0.45,0.03l-8.48-1.43C102.18,338.64,102.08,338.64,101.97,338.65z"/>
		<path class="st2" d="M98.98,349.26c0.59-0.34,1.15-0.69,1.68-1.06c0.37-0.25,0.89-0.43,1.31-0.47v-9.09
			c-0.42,0.03-0.95,0.22-1.32,0.48c-1.04,0.71-2.18,1.37-3.44,1.97c-0.5,0.25-0.78,0.68-0.62,1.02l2.33,4.61
			c0.03,0.06,0.05,0.13,0.05,0.19C98.97,347.19,98.98,349.26,98.98,349.26z"/>
		<path class="st4" d="M83.67,344.72v9.08c0.21,0.07,0.4,0.17,0.52,0.29l4.12,4.33c0.15,0.16,0.44,0.26,0.75,0.3v-9.08
			c-0.33-0.03-0.61-0.13-0.77-0.29l-4.12-4.34C84.06,344.89,83.88,344.79,83.67,344.72z"/>
		<path class="st2" d="M76.69,344.67v9.08c0.19-0.05,0.38-0.09,0.54-0.08c1.84,0.11,3.73,0.12,5.61,0.01
			c0.27-0.02,0.57,0.04,0.83,0.13v-9.08c-0.26-0.09-0.57-0.15-0.85-0.13c-1.89,0.12-3.76,0.11-5.6-0.01
			C77.06,344.58,76.88,344.6,76.69,344.67z"/>
		<path class="st4" d="M71.21,349.6v9.07c0.3-0.09,0.61-0.25,0.82-0.48l3.69-3.88c0.25-0.26,0.61-0.46,0.97-0.57v-9.08
			c-0.36,0.11-0.74,0.32-0.99,0.57l-3.69,3.88C71.8,349.34,71.51,349.51,71.21,349.6z"/>
		<path class="st1" d="M61.18,347.03v2.25c0.01,0,0.01,0,0.01,0s-0.01,1.1-0.01,2.42v1.15c0,1.61,0.01,3.18,0.02,3.25
			c0.03,0.23,0.19,0.43,0.46,0.49l8.95,2.14c0.18,0.05,0.39,0.02,0.61-0.05v-9.07c-0.23,0.07-0.45,0.09-0.63,0.05l-8.95-2.14
			C61.37,347.45,61.21,347.27,61.18,347.03z"/>
		<path class="st4" d="M58.29,338.66v9.08c0.36,0.04,0.7,0.12,0.9,0.27c0.63,0.45,1.29,0.87,2,1.26c0,0-0.01-2.07-0.01-2.36
			c0-0.12,0.03-0.24,0.09-0.37l2.15-4.26c0.22-0.43,0.09-0.91-0.27-1.08c-1.45-0.67-2.79-1.43-3.98-2.28
			C58.98,338.79,58.64,338.69,58.29,338.66z"/>
		<path class="st1" d="M44.54,334.5c0,0.45,0.01,8.83,0.01,9.07c0.01,0.08,0.03,0.15,0.08,0.23l3.57,4.97
			c0.11,0.16,0.35,0.29,0.61,0.35v-9.07c-0.28-0.06-0.51-0.19-0.63-0.36l-3.56-4.97C44.56,334.65,44.54,334.57,44.54,334.5z"/>
		<g id="XMLID_12_">
			<path id="XMLID_13_" class="st3" d="M98.46,310.79l-8.95-2.14c-0.42-0.1-1.06,0.13-1.44,0.53l-3.69,3.88
				c-0.38,0.4-1.05,0.69-1.51,0.66c-1.84-0.12-3.72-0.13-5.61-0.01c-0.49,0.03-1.1-0.15-1.35-0.42l-4.12-4.33
				c-0.25-0.27-0.88-0.39-1.39-0.26l-8.61,2.06c-0.42,0.1-0.68,0.36-0.67,0.63c0,0.06,0.01,0.12,0.04,0.18l2.33,4.63
				c0.17,0.32-0.11,0.77-0.62,1.01c-0.61,0.29-1.19,0.6-1.75,0.92c-0.59,0.34-1.15,0.69-1.68,1.06c-0.47,0.32-1.18,0.54-1.62,0.46
				l-8.48-1.42c-0.43-0.07-1.03,0.21-1.34,0.63l-3.24,4.52c-0.12,0.17-0.18,0.35-0.18,0.5c0,0.01,0,0.01,0,0.02
				c0.01,0.22,0.13,0.4,0.35,0.47l7.75,2.45c0.4,0.12,0.64,0.57,0.57,0.99c-0.14,0.92-0.14,1.86,0.01,2.8
				c0.06,0.38-0.29,0.8-0.8,0.97l-7.31,2.31c-0.27,0.09-0.47,0.23-0.56,0.39l0,0c-0.04,0.06-0.05,0.13-0.06,0.2c0,0,0,0,0,0.02
				c0,0,0,0,0,0c0,0.08,0.02,0.15,0.08,0.22l3.56,4.97c0.22,0.3,0.8,0.47,1.31,0.38l8.22-1.38c0.51-0.09,1.16,0.03,1.47,0.26
				c1.19,0.84,2.53,1.61,3.97,2.28c0.36,0.17,0.49,0.65,0.27,1.08l-2.15,4.25c-0.21,0.43-0.05,0.86,0.36,0.96l8.95,2.14
				c0.42,0.1,1.06-0.14,1.43-0.53l3.69-3.88c0.37-0.39,1.05-0.68,1.51-0.65c1.85,0.11,3.72,0.12,5.6,0c0.49-0.03,1.1,0.16,1.35,0.42
				l4.12,4.33c0.25,0.27,0.87,0.38,1.39,0.26l8.61-2.05c0.51-0.13,0.8-0.49,0.63-0.82l-2.33-4.62c-0.16-0.33,0.11-0.77,0.62-1.02
				c1.26-0.6,2.41-1.26,3.44-1.98c0.46-0.32,1.18-0.54,1.62-0.47l8.48,1.43c0.44,0.08,1.04-0.21,1.34-0.63l3.25-4.52
				c0.12-0.17,0.18-0.35,0.18-0.5c0-0.23-0.13-0.42-0.36-0.49l-7.74-2.45c-0.4-0.13-0.64-0.58-0.57-0.99
				c0.14-0.93,0.15-1.86-0.01-2.8c-0.06-0.38,0.28-0.81,0.8-0.97l7.31-2.32c0.38-0.12,0.61-0.34,0.62-0.58c0-0.01,0-0.02,0-0.04
				c0-0.08-0.03-0.15-0.08-0.22l-3.57-4.97c-0.21-0.29-0.79-0.47-1.31-0.38l-8.21,1.38c-0.51,0.08-1.16-0.03-1.47-0.25
				c-0.63-0.45-1.29-0.87-1.99-1.27c-0.63-0.36-1.29-0.7-1.98-1.01c-0.37-0.17-0.49-0.65-0.27-1.08l2.14-4.25
				c0.06-0.12,0.09-0.24,0.1-0.34c0-0.01,0-0.02,0-0.03C98.92,311.09,98.75,310.86,98.46,310.79z M74.03,320.76
				c8.02-1.92,17.23,0.28,20.56,4.92c1.3,1.81,1.51,3.72,0.8,5.49c-0.02,0.07-0.05,0.13-0.08,0.2c-0.02,0.06-0.05,0.12-0.08,0.19
				c-0.03,0.06-0.06,0.12-0.09,0.18c0,0.02-0.01,0.03-0.02,0.04c-0.56,1.08-1.47,2.09-2.69,2.99c-0.4,0.3-0.85,0.59-1.32,0.85
				c-1.41,0.81-3.1,1.47-5.05,1.93c-6.02,1.44-12.71,0.56-17.07-1.92c-0.48-0.27-0.93-0.56-1.35-0.88
				c-0.85-0.63-1.58-1.33-2.13-2.11c-1.49-2.08-1.54-4.29-0.43-6.27c0.03-0.05,0.05-0.1,0.08-0.14c0.06-0.1,0.12-0.2,0.19-0.3
				c0.11-0.16,0.21-0.31,0.33-0.47c0.1-0.13,0.21-0.26,0.32-0.39c0.05-0.05,0.1-0.11,0.15-0.17c0.07-0.08,0.14-0.15,0.22-0.23
				C68.04,322.96,70.66,321.56,74.03,320.76z"/>
		</g>
	</g>
</g>
<g id="Robot_1_">
	<g id="Robot_3_">
		<g>
			<g>
				<path class="st3" d="M345.66,218.05c-0.2-2.17-1.02-6.68-4.79-8.46c-3.77-1.78-5.85-0.02-5.3,1.66
					c0.55,1.68,4.45,2.19,4.61,7.88C340.18,219.14,343.58,220.61,345.66,218.05z"/>
				<path class="st4" d="M342.36,217.17c-0.51-3.43-2.76-5-3.97-5.94c-1.21-0.95-1.4-1.94,0-2.36c-2.16-0.19-3.23,1.12-2.82,2.39
					c0.55,1.68,4.45,2.19,4.61,7.88c0,0,1.11,0.48,2.45,0.42C342.58,218.84,342.49,218.04,342.36,217.17z"/>
			</g>
			<path class="st5" d="M337.52,221.98c2.45-4.96,10.23-5.65,16.28,0c9.08,8.47,10.57,16.86,6.74,21.32
				c-3.83,4.47-9.68,3.18-14.88-1.5C341.66,238.19,333.98,229.17,337.52,221.98z"/>
			<path class="st6" d="M360.54,243.3c1.17-1.36,1.83-3.09,1.95-5.06c-0.46,2.5-1.73,4.27-3.43,4.87
				c-2.09,0.74-5.79,1.89-11.92-4.46c-6.13-6.35-9.36-16.9-5.18-20.27c-1.95,0.58-3.55,1.8-4.44,3.6
				c-3.55,7.19,4.14,16.21,8.14,19.82C350.86,246.48,356.71,247.77,360.54,243.3z"/>
			<g>
				<path class="st3" d="M324.41,241.33c-15.39-8.19-23.78-12.28-31.36-8.35l-3.69-7.12c11.67-6.05,23.06,0.01,38.81,8.39
					L324.41,241.33z"/>
				<g>
					<path class="st7" d="M302.53,223.64c2,1.42,2.97,5.79,1.03,8.36"/>
					<path class="st7" d="M312.35,226.44c1.41,1.16,2.35,5.85-0.35,8.6"/>
				</g>
				<path class="st4" d="M293.06,232.98c7.58-3.93,15.97,0.16,31.36,8.35l1.56-2.92c-3.28-2.09-7.06-4.27-10.97-6.04
					c-10.83-4.9-14.95-5.46-23.44-2.29L293.06,232.98z"/>
				<g>
					
						<ellipse transform="matrix(0.9239 -0.3827 0.3827 0.9239 -66.806 126.1987)" class="st5" cx="283.82" cy="231.03" rx="13" ry="13"/>
					
						<ellipse transform="matrix(0.9239 -0.3827 0.3827 0.9239 -66.806 126.1987)" class="st8" cx="283.82" cy="231.03" rx="13" ry="13"/>
				</g>
			</g>
		</g>
		<g>
			<g>
				<circle class="st5" cx="270.95" cy="302.08" r="32.34"/>
				<circle class="st9" cx="270.95" cy="302.08" r="32.34"/>
				<path class="st4" d="M272.97,327.42c-8.03-0.93-11.82-5.75-11.82-5.75s28.06,0.08,41.49-26.01c-2-9.92-8.54-18.19-17.36-22.57
					l-37.79,6.73c-5.51,5.8-8.89,13.63-8.89,22.26c0,17.86,14.48,32.34,32.34,32.34c11.75,0,22.04-6.27,27.7-15.64
					C292.22,326.42,281.12,328.37,272.97,327.42z"/>
			</g>
			<g>
				<path class="st5" d="M302.42,284.8L302.42,284.8c0.01,0-0.06-0.13-0.16-0.34c-0.04-0.09-0.08-0.18-0.13-0.27
					c-1.09-2.26-5.11-10.96-8.81-23.95c-4.17-14.63-4.64-29.78-4.64-29.78h-74.55c0,27.92,5.36,55.35,17.57,76.58l0,0
					c2.08,4.09,6.48,7.47,13.04,9.45c16.09,4.87,39.07-0.51,51.33-12.01C303.13,297.85,305.08,290.65,302.42,284.8z"/>
				<path class="st6" d="M294.25,306.06c-5.22,3.84-17.06,8.61-25.92,8.53c-10.14-0.09-30.47-5.72-37.74-21.58
					c-7.27-15.87-9.61-45.23-9.61-45.23s8.62,4.94,28.11,4.45l-2.55-21.77h-32.41c0,27.92,5.36,55.35,17.57,76.58l0,0
					c2.08,4.09,6.48,7.47,13.04,9.45C260.07,321.12,281.64,316.45,294.25,306.06z"/>
			</g>
			<g>
				<path class="st1" d="M298.16,274.83c-0.1-0.26-0.2-0.54-0.31-0.82c-0.07-0.16-0.12-0.32-0.19-0.48l-0.03-0.11
					c-1.36-3.65-2.86-8.08-4.31-13.19c-1.76-6.19-2.86-12.46-3.55-17.65l-0.02-0.08c0.83,6.05-2.77,12.28-10.8,16.91
					c-9.6,5.54-23.14,7.44-35.42,5.66c1.44,13.77,6.08,28.25,13.72,39.17c11.96,0.88,26.09-3.57,34.06-11.04
					C297.86,287.07,300.01,280.43,298.16,274.83z"/>
				<path class="st3" d="M296.26,274.1c-0.1-0.27-0.19-0.55-0.29-0.82c-0.06-0.16-0.11-0.32-0.18-0.48l-0.03-0.11
					c-1.28-3.68-2.7-8.14-4.05-13.27c-1.04-3.93-1.81-7.89-2.38-11.58c-1.25,4.24-4.7,8.31-10.38,11.58
					c-9.6,5.54-23.14,7.44-35.42,5.66c1.34,12.75,5.42,26.12,12.09,36.7c11.66,0.73,25.66-2.42,33.44-9.42
					C295.72,286.34,298,279.74,296.26,274.1z"/>
			</g>
			<g>
				<g>
					<g>
						<g>
							<path class="st2" d="M274.18,270.69l-3.75-1.71c0,0-13.74,3.22-21.99,2.45c0,0-0.01,6.31,1.58,12.18
								c1.86,6.88,4.49,10.83,4.49,10.83l4.34,2.1L274.18,270.69z"/>
							<path class="st1" d="M251.49,274.86c0,5.24,4.33,18.1,7.35,21.69c0,0,15.17-0.71,21.7-6.69c-0.21-1.67-6.36-19.16-6.36-19.16
								C270.17,273.65,258.32,274.87,251.49,274.86z"/>
						</g>
						<circle class="st5" cx="275.79" cy="287.53" r="1.51"/>
						<circle class="st5" cx="271.16" cy="289.04" r="0.74"/>
					</g>
					<g>
						<g>
							<path class="st5" d="M275.07,279.12c-0.07,0.03-0.13,0.04-0.2,0.04c-0.19,0-0.38-0.11-0.46-0.3
								c-0.1-0.26,0.02-0.55,0.27-0.66c1.37-0.57,2.09-2.07,1.69-3.51l-3.53-12.43c0.31-0.12,0.63-0.24,0.93-0.37l3.56,12.53
								C277.88,276.34,276.91,278.36,275.07,279.12z"/>
						</g>
						<g>
							<path class="st5" d="M269.03,281.05c-0.07,0.03-0.13,0.04-0.2,0.04c-0.19,0-0.38-0.12-0.46-0.31
								c-0.1-0.25,0.02-0.55,0.27-0.65c1.37-0.57,2.09-2.08,1.69-3.51l-3.56-12.52c0.33-0.08,0.65-0.16,0.97-0.24l3.55,12.49
								C271.85,278.26,270.86,280.29,269.03,281.05z"/>
						</g>
						<g>
							<path class="st5" d="M262.99,282.96c-0.06,0.03-0.13,0.04-0.19,0.04c-0.2,0-0.39-0.11-0.47-0.3
								c-0.1-0.26,0.02-0.55,0.27-0.66c1.37-0.57,2.1-2.07,1.69-3.51l-3.78-13.31c0.33-0.04,0.67-0.08,1-0.13l3.74,13.17
								C265.8,280.18,264.82,282.2,262.99,282.96z"/>
						</g>
						<g class="st10">
							<path d="M275.07,279.12c-0.07,0.03-0.13,0.04-0.2,0.04c-0.19,0-0.38-0.11-0.46-0.3c-0.1-0.26,0.02-0.55,0.27-0.66
								c1.37-0.57,2.09-2.07,1.69-3.51l-3.53-12.43c0.31-0.12,0.63-0.24,0.93-0.37l3.56,12.53
								C277.88,276.34,276.91,278.36,275.07,279.12z"/>
							<path d="M269.03,281.05c-0.07,0.03-0.13,0.04-0.2,0.04c-0.19,0-0.38-0.12-0.46-0.31c-0.1-0.25,0.02-0.55,0.27-0.65
								c1.37-0.57,2.09-2.08,1.69-3.51l-3.56-12.52c0.33-0.08,0.65-0.16,0.97-0.24l3.55,12.49
								C271.85,278.26,270.86,280.29,269.03,281.05z"/>
							<path d="M262.99,282.96c-0.06,0.03-0.13,0.04-0.19,0.04c-0.2,0-0.39-0.11-0.47-0.3c-0.1-0.26,0.02-0.55,0.27-0.66
								c1.37-0.57,2.1-2.07,1.69-3.51l-3.78-13.31c0.33-0.04,0.67-0.08,1-0.13l3.74,13.17C265.8,280.18,264.82,282.2,262.99,282.96z
								"/>
						</g>
					</g>
				</g>
				<g>
					<path class="st1" d="M278.95,259.41c-0.77,0.45-1.58,0.86-2.4,1.26c0.88,4.47,2.5,11.42,4.14,15.19c0,0,7.97-2.43,10.65-7.69
						c0,0-2.62-7.85-4.02-16.19C285.51,254.69,282.73,257.23,278.95,259.41z"/>
					<path class="st5" d="M286.28,258.28c0,0.48-0.39,0.87-0.87,0.87s-0.87-0.39-0.87-0.87s0.39-0.87,0.87-0.87
						S286.28,257.8,286.28,258.28z"/>
					<path class="st5" d="M287.51,262.23c0,0.48-0.39,0.87-0.87,0.87s-0.87-0.39-0.87-0.87s0.39-0.87,0.87-0.87
						S287.51,261.75,287.51,262.23z"/>
					<path class="st5" d="M289.25,266.25c0,0.48-0.39,0.87-0.87,0.87s-0.87-0.39-0.87-0.87s0.39-0.87,0.87-0.87
						S289.25,265.77,289.25,266.25z"/>
					<g>
						<path class="st5" d="M282.12,272.73c-0.2,0-0.38-0.12-0.46-0.31c-0.56-1.37-2.32-8.06-2.78-10.81
							c-0.05-0.27,0.14-0.53,0.41-0.58c0.27-0.04,0.53,0.14,0.58,0.41c0.44,2.64,2.19,9.3,2.72,10.59c0.1,0.26-0.02,0.55-0.27,0.65
							C282.24,272.72,282.18,272.73,282.12,272.73z"/>
					</g>
					<g>
						<path class="st5" d="M284.87,270.95c-0.2,0-0.38-0.12-0.46-0.31c-0.56-1.37-2.32-8.06-2.78-10.81
							c-0.05-0.27,0.14-0.53,0.41-0.58c0.27-0.04,0.53,0.14,0.58,0.41c0.44,2.64,2.19,9.3,2.72,10.59c0.1,0.26-0.02,0.55-0.27,0.65
							C285,270.93,284.93,270.95,284.87,270.95z"/>
					</g>
				</g>
			</g>
			<g>
				<path class="st5" d="M349.73,264.32c0,0-6.49,10.29-21.47,15.77c-13.5,4.93-25.92,3.72-26.33,3.68
					c-1.31-2.79-5.1-11.22-8.61-23.54c-1.76-6.19-2.87-12.47-3.55-17.66c0,0,11.55,1.5,23.94-6.25c14.12-8.83,17.35-18.3,17.35-18.3
					C339.82,230.38,345.96,245.94,349.73,264.32z"/>
				<path class="st8" d="M349.73,264.32c0,0-6.49,10.29-21.47,15.77c-13.5,4.93-25.92,3.72-26.33,3.68
					c-1.31-2.79-5.1-11.22-8.61-23.54c-1.76-6.19-2.87-12.47-3.55-17.66c0,0,11.55,1.5,23.94-6.25c14.12-8.83,17.35-18.3,17.35-18.3
					C339.82,230.38,345.96,245.94,349.73,264.32z"/>
				<path class="st8" d="M349.73,264.32c-3.78-18.39-9.91-33.94-18.68-46.29c0,0-0.43,1.24-1.63,3.24
					c7.48,8.72,16.5,30.45,17.98,46.03C348.25,266.36,349.03,265.36,349.73,264.32z"/>
				<circle class="st1" cx="331.84" cy="249.76" r="2.57"/>
			</g>
			<g>
				<ellipse class="st5" cx="251.4" cy="230.74" rx="37.28" ry="21.52"/>
				<ellipse class="st11" cx="251.4" cy="230.74" rx="37.28" ry="21.52"/>
				<path class="st6" d="M225.04,215.52c-5.68,3.28-9.14,7.36-10.38,11.61c1,3.67,3.94,7.2,8.84,10.04
					c12.31,7.11,32.26,7.11,44.57,0c12.24-7.07,12.3-18.5,0.2-25.61C254.28,207.45,236.74,208.77,225.04,215.52z"/>
			</g>
			<g>
				<path class="st5" d="M300.33,272.97c-1.46-0.98-3.19-1.33-4.89-1.19c-1.98,0.18-3.93,1.03-5.39,2.37
					c-0.17,0.15-0.33,0.31-0.48,0.48c-1.91,0.5-3.67,1.61-4.94,3.26c-0.65,0.84-1.13,1.82-1.34,2.86c-0.62,0.76-1.06,1.68-1.2,2.72
					c-0.2,1.57,0.34,3.14,1.27,4.38c1.49,2,4.08,3.47,6.65,3.62c0.51-0.5,0.99-1,1.44-1.5c-1.86,0.2-3.89-0.52-5.34-1.55
					c-1.53-1.07-2.76-2.92-2.62-4.76c0.01,0.03,0.02,0.07,0.03,0.1c0.7,1.77,2.19,3.13,3.96,3.82c1.72,0.67,3.78,0.57,5.2-0.71
					c0.46-0.4,0.79-0.88,1.03-1.38c0.31,0.04,0.63,0.05,0.94,0.05c1.77-0.01,3.46-0.67,4.32-2.24c0.8-1.46,0.73-3.27,0.13-4.79
					c-0.51-1.27-1.39-2.25-2.52-2.94c-0.37-0.23-0.76-0.42-1.17-0.58c-1.18-0.46-2.42-0.67-3.65-0.64c1.16-0.86,2.57-1.38,4.01-1.54
					c0.77-0.09,1.55-0.07,2.31,0.05c0.72,0.12,1.42,0.33,2.07,0.66C300.57,273.68,300.6,273.16,300.33,272.97z M285.52,278.87
					c0.77-1.11,1.77-1.94,2.9-2.51c-0.28,0.59-0.49,1.22-0.6,1.86c-0.84,0.14-1.66,0.43-2.4,0.82
					C285.44,278.99,285.48,278.93,285.52,278.87z M288.93,286.46c-1.46-0.27-2.86-1.19-3.66-2.45c-0.56-0.87-0.75-1.83-0.65-2.78
					c0.79-0.84,1.92-1.46,3.1-1.68c0.03,1.51,0.59,2.99,1.8,4.12c0.7,0.65,1.66,1.16,2.72,1.48
					C291.55,286.31,290.21,286.7,288.93,286.46z M290.89,282.99c-1.14-0.89-1.68-2.17-1.74-3.51c0.97,0.1,1.87,0.51,2.52,1.35
					c0.63,0.81,1.06,1.96,0.97,3.05C291.98,283.66,291.37,283.36,290.89,282.99z M294.22,275.9c1,0.3,1.9,0.79,2.58,1.52
					c0.31,0.31,0.56,0.66,0.76,1.06c0.56,1.08,0.78,2.45,0.42,3.64c-0.39,1.25-1.42,1.86-2.62,2.02c-0.41,0.06-0.83,0.07-1.26,0.03
					c0.1-0.75,0.04-1.53-0.2-2.31c-0.52-1.69-1.82-3.14-3.58-3.57c-0.35-0.08-0.71-0.12-1.07-0.14c0.17-0.87,0.54-1.71,1.08-2.43
					C291.59,275.47,292.92,275.51,294.22,275.9z"/>
				<path class="st11" d="M300.33,272.97c-1.46-0.98-3.19-1.33-4.89-1.19c-1.98,0.18-3.93,1.03-5.39,2.37
					c-0.17,0.15-0.33,0.31-0.48,0.48c-1.91,0.5-3.67,1.61-4.94,3.26c-0.65,0.84-1.13,1.82-1.34,2.86c-0.62,0.76-1.06,1.68-1.2,2.72
					c-0.2,1.57,0.34,3.14,1.27,4.38c1.49,2,4.08,3.47,6.65,3.62c0.51-0.5,0.99-1,1.44-1.5c-1.86,0.2-3.89-0.52-5.34-1.55
					c-1.53-1.07-2.76-2.92-2.62-4.76c0.01,0.03,0.02,0.07,0.03,0.1c0.7,1.77,2.19,3.13,3.96,3.82c1.72,0.67,3.78,0.57,5.2-0.71
					c0.46-0.4,0.79-0.88,1.03-1.38c0.31,0.04,0.63,0.05,0.94,0.05c1.77-0.01,3.46-0.67,4.32-2.24c0.8-1.46,0.73-3.27,0.13-4.79
					c-0.51-1.27-1.39-2.25-2.52-2.94c-0.37-0.23-0.76-0.42-1.17-0.58c-1.18-0.46-2.42-0.67-3.65-0.64c1.16-0.86,2.57-1.38,4.01-1.54
					c0.77-0.09,1.55-0.07,2.31,0.05c0.72,0.12,1.42,0.33,2.07,0.66C300.57,273.68,300.6,273.16,300.33,272.97z M285.52,278.87
					c0.77-1.11,1.77-1.94,2.9-2.51c-0.28,0.59-0.49,1.22-0.6,1.86c-0.84,0.14-1.66,0.43-2.4,0.82
					C285.44,278.99,285.48,278.93,285.52,278.87z M288.93,286.46c-1.46-0.27-2.86-1.19-3.66-2.45c-0.56-0.87-0.75-1.83-0.65-2.78
					c0.79-0.84,1.92-1.46,3.1-1.68c0.03,1.51,0.59,2.99,1.8,4.12c0.7,0.65,1.66,1.16,2.72,1.48
					C291.55,286.31,290.21,286.7,288.93,286.46z M290.89,282.99c-1.14-0.89-1.68-2.17-1.74-3.51c0.97,0.1,1.87,0.51,2.52,1.35
					c0.63,0.81,1.06,1.96,0.97,3.05C291.98,283.66,291.37,283.36,290.89,282.99z M294.22,275.9c1,0.3,1.9,0.79,2.58,1.52
					c0.31,0.31,0.56,0.66,0.76,1.06c0.56,1.08,0.78,2.45,0.42,3.64c-0.39,1.25-1.42,1.86-2.62,2.02c-0.41,0.06-0.83,0.07-1.26,0.03
					c0.1-0.75,0.04-1.53-0.2-2.31c-0.52-1.69-1.82-3.14-3.58-3.57c-0.35-0.08-0.71-0.12-1.07-0.14c0.17-0.87,0.54-1.71,1.08-2.43
					C291.59,275.47,292.92,275.51,294.22,275.9z"/>
				<g>
					<path class="st4" d="M282.12,283.33c0.43,1.1,1.18,1.74,1.64,2.05c-0.2-0.56-0.3-1.15-0.26-1.74c0.01,0.03,0.02,0.07,0.03,0.1
						c-0.27-1.11-0.36-1.81-0.24-3C282.7,281.47,282.28,282.35,282.12,283.33z"/>
					<path class="st4" d="M285.02,280.88c0.02-0.4,0.1-1.04,0.4-1.83c-0.34,0.53-0.78,1.38-0.79,2.18
						C284.74,281.11,284.88,281,285.02,280.88z"/>
					<path class="st4" d="M287.19,277.15c0.39-0.3,0.8-0.57,1.23-0.78c0.25-0.58,0.55-1.02,1.15-1.73
						c-0.34,0.09-0.68,0.21-1.01,0.34C287.78,275.63,287.37,276.6,287.19,277.15z"/>
					<path class="st4" d="M287.82,278.23c-0.19,0.03-0.37,0.07-0.56,0.11c-0.13,0.44-0.19,0.98-0.23,1.4
						c0.23-0.07,0.45-0.14,0.68-0.19C287.7,279.2,287.69,278.82,287.82,278.23z"/>
					<path class="st4" d="M293.72,285.47c-0.61-0.08-1.48-0.31-1.48-0.31c-0.16,0.27-0.36,0.49-0.58,0.68
						c0.28,0.19,0.8,0.47,1.44,0.57C293.35,286.1,293.56,285.79,293.72,285.47z"/>
					<path class="st4" d="M291.78,274.32c-0.74,0.57-1.44,1.39-1.44,1.39c0.17-0.03,0.35-0.05,0.53-0.07
						C291.02,275.35,291.3,274.92,291.78,274.32z"/>
					<path class="st4" d="M289.15,279.48c0.1,0.01,0.2,0.04,0.3,0.06c-0.04-0.3-0.1-0.87,0-1.37c-0.06-0.01-0.13-0.01-0.19-0.02
						C289.12,278.84,289.15,279.48,289.15,279.48z"/>
					<path class="st4" d="M294.15,283.61c-0.44,0.06-1.1,0.11-1.52,0c0,0.09,0.02,0.18,0.01,0.27c0.67,0.24,1.46,0.29,1.46,0.29
						C294.13,283.99,294.14,283.8,294.15,283.61z"/>
				</g>
			</g>
		</g>
		<g id="Arm_2_">
			<g>
				<path class="st5" d="M231.67,268.64c0,2.8-0.94,4.81-2.47,5.81c-0.38,0.21-0.79,0.38-1.19,0.54c-1.47,0.58-3.06,0.89-4.73,0.89
					c-7.18,0-13-5.81-13-13c0-4.22,2-7.96,5.12-10.33c0.03-0.05,0.07-0.08,0.1-0.09c0.16-0.1,0.3-0.22,0.46-0.31
					c0.01-0.01,0.04-0.03,0.05-0.04c1.65-0.96,3.94-0.81,6.48,0.64C227.56,255.67,231.67,262.78,231.67,268.64z"/>
				<path class="st8" d="M231.67,268.64c0,2.8-0.94,4.81-2.47,5.81c-0.38,0.21-0.79,0.38-1.19,0.54c-1.47,0.58-3.06,0.89-4.73,0.89
					c-7.18,0-13-5.81-13-13c0-4.22,2-7.96,5.12-10.33c0.03-0.05,0.07-0.08,0.1-0.09c0.16-0.1,0.3-0.22,0.46-0.31
					c0.01-0.01,0.04-0.03,0.05-0.04c1.65-0.96,3.94-0.81,6.48,0.64C227.56,255.67,231.67,262.78,231.67,268.64z"/>
				<path class="st6" d="M231.67,268.64c0-4.52-2.45-9.78-5.9-13.3c2.57,3.22,5.05,11.43,1.85,15.62
					c-3.19,4.19-14.71,1.8-16.98-5.07c1.36,5.73,6.5,9.98,12.64,9.98c1.66,0,3.26-0.31,4.73-0.89c0.41-0.16,0.81-0.33,1.19-0.54
					C230.73,273.44,231.67,271.44,231.67,268.64z"/>
			</g>
			<path class="st12" d="M243.12,315.63c-2.21,1.48-4.06,1.56-6.45,0.71c-1.68-0.59-3.2-1.95-3.83-3.32l-5.44,22.68
				c1.15,0.69,2.43,1.22,3.81,1.53c2.57,0.58,5.12,0.34,7.41-0.54l4.94-20.61C243.41,315.94,243.27,315.78,243.12,315.63z"/>
			<g>
				<path class="st3" d="M223.26,319.09c-8.45,0.6-20.64-3.94-26.18-9.26c-2.94-2.82-3.57-6.79-1.98-12.49
					c3.06-11,16.24-26.21,22.5-29.16l0-0.01c0.55-0.28,0.9-0.92,0.9-1.86c0-1.81-1.27-4-2.83-4.91c-0.76-0.44-1.45-0.49-1.96-0.22
					l0-0.01c-8.71,4.11-23.31,21.47-26.87,34.28c-2.39,8.6-0.99,15.47,4.15,20.41c6.65,6.39,20.18,11.28,30.64,11.28
					c0.76,0,1.5-0.03,2.22-0.08L223.26,319.09z"/>
				<g>
					<path class="st13" d="M204.36,268.34c2.57-0.51,6.28,2.35,6.26,5.3"/>
					<path class="st13" d="M198.41,274.97c2.52-0.62,6.34,1.7,7.23,4.17"/>
					<path class="st13" d="M192.86,282.72c2.83-0.64,6.33,1.42,7.33,3.93"/>
					<path class="st13" d="M196.24,294.1c-0.74-2-6.68-3.31-8.69-0.84"/>
					<path class="st13" d="M194.26,302.27c-0.89-2-7.41-1.41-8.53,1.8"/>
					<path class="st13" d="M196.52,309.25c-0.93-1.25-7.27,0.44-7.61,4.25"/>
					<path class="st13" d="M202.74,313.84c-2.55-0.86-7.22,3.05-5.38,6.64"/>
					<path class="st13" d="M209.04,316.67c-2.14,0.1-4.85,4.36-3.53,7.48"/>
					<path class="st13" d="M216.09,318.59c-2.19,0.77-3.63,5.07-2.34,7.78"/>
				</g>
				<path class="st4" d="M188.16,297.57c2.83-12.77,13.43-23.59,18.94-28.74c3.54-3.3,7.53-5.41,10.23-5.81
					c-0.47-0.67-1.04-1.24-1.67-1.6c-0.76-0.44-1.45-0.49-1.96-0.22l0-0.01c-8.71,4.11-23.31,21.47-26.87,34.28
					c-2.39,8.6-0.99,15.47,4.15,20.41C190.99,315.88,185.33,310.36,188.16,297.57z"/>
				<path class="st4" d="M223.26,319.09c-8.45,0.6-20.64-3.94-26.18-9.26c-1.44-1.38-2.31-3.04-2.66-5.04l-0.16-0.02
					c0.64,4.08,1.16,8.9,12.84,13.57c6.54,2.62,12.41,2.93,16.3,2.7L223.26,319.09z"/>
			</g>
		</g>
		<g>
			<g>
				<path class="st3" d="M345.49,230c0,0,2.3-1.04,1.48-3.45c-0.82-2.4-3.73-3.12-3.73-3.12s-5.39-1.49-9.51,0.98
					c-4.11,2.47-4.17,7.69-4.05,9.37c0.14,1.98,3.3,3.23,4.56,0.51c0.95-2.06,0.94-4.9,4.36-5.89
					C341.43,227.57,343.81,230.74,345.49,230z"/>
				<path class="st4" d="M343.84,227.82c-2.86-1.17-5.92-2.7-8.35,0c-2.43,2.7-1.92,5.34-2.94,6.46c-1.02,1.12-2.22,0.92-2.76,0.01
					c0.58,1.67,3.3,2.49,4.44,0c0.95-2.06,0.94-4.9,4.36-5.89c2.83-0.82,5.21,2.35,6.89,1.6c0,0,2.3-1.04,1.48-3.45
					C346.99,227.76,346.08,228.73,343.84,227.82z"/>
			</g>
			<g>
				<path class="st3" d="M351.06,241.68c0,0,0.98-1.08,2.59-0.23c1.68,0.89,1.66,2.31,1.66,2.31s0.14,3.55-3.7,7.17
					c-2.95,2.79-7.36,3.22-8.98,2.78c-2.53-0.67-2.95-3.52-0.01-4.15c2.21-0.48,4.16-0.43,6.53-3.09
					C350.6,244.84,350.6,242.67,351.06,241.68z"/>
				<path class="st4" d="M350.11,249.76c-3.89,2.95-6.28,2.65-7.73,2.29c-1.43-0.35-1.44-1.76-0.82-2.08
					c-1.71,1.01-1.09,3.17,1.07,3.75c1.62,0.43,6.03,0.01,8.98-2.78c3.84-3.63,3.7-7.17,3.7-7.17s0.02-1.42-1.66-2.31
					C354.38,242.41,354.28,246.61,350.11,249.76z"/>
			</g>
			<g>
				<path class="st3" d="M347.28,231.6c0,0,2.14-0.28,3.64,2.01c1.91,2.91-0.34,4.13-0.34,4.13c-1.49,0.18-3.38-0.75-6.42,0.45
					c-3.79,1.5-4.22,4.38-5.1,6.65c-0.98,2.51-4.85,1.15-4.22-2.78c0.63-3.89,2.25-6.47,4.82-8.14
					C342.23,232.26,345.16,231.59,347.28,231.6z"/>
				<path class="st4" d="M348.53,235.44c-2.67-0.14-6.64,0.26-8.44,3.14c-1.21,1.94-1.51,4.66-2.57,5.45
					c-1.33,1-2.46,0.03-2.74-1.05c0.06,3.2,3.38,4.17,4.28,1.86c0.89-2.28,1.31-5.15,5.1-6.65c3.04-1.21,4.93-0.27,6.42-0.45
					c0,0,2.06-1.12,0.56-3.76C351.56,234.95,351.19,235.59,348.53,235.44z"/>
			</g>
		</g>
		<g>
			<g>
				<path class="st3" d="M280.45,322.5L280.45,322.5c-1.11-1.27-2.73-2.08-4.55-2.08c-3.32,0-6.01,2.69-6.01,6.01
					c0,1.5,0.55,2.87,1.47,3.93l-0.01,0.01l38.34,44.37l9.1-7.86L280.45,322.5z"/>
				<g>
					<path class="st13" d="M286.34,329.32c-1.1-1.27-2.73-2.08-4.54-2.08c-3.32,0-6.01,2.69-6.01,6.01c0,1.5,0.55,2.87,1.47,3.93"/>
					<path class="st13" d="M292.85,336.85c-1.1-1.27-2.73-2.08-4.54-2.08c-3.32,0-6.01,2.69-6.01,6.01c0,1.5,0.55,2.87,1.47,3.93"/>
					<path class="st13" d="M299.36,344.39c-1.1-1.27-2.73-2.08-4.54-2.08c-3.32,0-6.01,2.69-6.01,6.01c0,1.5,0.55,2.87,1.47,3.93"/>
					<path class="st13" d="M305.88,351.92c-1.1-1.27-2.73-2.08-4.54-2.08c-3.32,0-6.01,2.69-6.01,6.01c0,1.5,0.55,2.87,1.47,3.93"/>
					<path class="st13" d="M303.3,367.31c-0.91-1.05-1.47-2.42-1.47-3.93c0-3.32,2.69-6.01,6.01-6.01c1.82,0,3.44,0.81,4.54,2.08"/>
				</g>
				<path class="st4" d="M275.9,320.42c-3.32,0-6.01,2.69-6.01,6.01c0,1.5,0.55,2.87,1.47,3.93l-0.01,0.01l38.34,44.37l3.78-3.27
					c-11.72-13.11-30.72-34.39-35.83-40.22C270.09,322.64,273.17,321.07,275.9,320.42z"/>
			</g>
			<g>
				<path class="st5" d="M380.27,372.91c0,0-11.22-9.8-20.21-3.39c-9,6.41-14.4,13.97-14.4,13.97l-24.22-21.41l0,0
					c-1.49-1.3-4.09-1.33-6.67,0.16c-4.5,2.6-8.14,8.91-8.14,14.1c0,1.73,0.41,3.11,1.12,4.09l-0.01,0.01c0,0,26.63,37.23,31.16,43
					c4.53,5.77,10.28,8.8,17.96,5.28c7.67-3.52,10.02-13.61,10.94-20.41c0.91-6.81,9.65-16.36,11.97-22.47
					C382.3,379.19,381.71,375.16,380.27,372.91z"/>
				<path class="st4" d="M371.52,370.22c-4.29,0.36-14.58,5.68-17.59,16.99c-1.3,4.9-2.88,9.76-4.2,12.72
					c-1.57,3.52-3.58,6.21-5.66,8.42c-3.55,3.76-7.8,1.2-11.49-1.85c-3.69-3.05-14.07-16.73-17.63-22.61
					c-2.57-4.26-3.38-7.49-2.68-10.59c0.24,0.32,0.48,0.63,0.74,0.91c3.46,3.84,10.07,6.99,15.11,3.15
					c2.46-1.87,2.65-4.82,1.84-7.74l-8.53-7.54c-1.49-1.3-4.09-1.33-6.67,0.16c-0.27,0.15-0.53,0.32-0.79,0.5
					c-0.09,0.06-0.18,0.13-0.27,0.2c-0.17,0.12-0.33,0.24-0.5,0.37c-0.11,0.09-0.21,0.18-0.32,0.27c-0.14,0.12-0.28,0.24-0.42,0.36
					c-0.11,0.1-0.23,0.21-0.34,0.32c-0.12,0.12-0.25,0.24-0.37,0.37c-0.12,0.12-0.23,0.24-0.35,0.37c-0.11,0.12-0.22,0.24-0.32,0.36
					c-0.12,0.14-0.24,0.28-0.35,0.42c-0.09,0.12-0.18,0.23-0.27,0.35c-0.12,0.16-0.24,0.31-0.36,0.47c-0.07,0.1-0.15,0.21-0.22,0.31
					c-1.99,2.86-3.28,6.34-3.28,9.42c0,1.73,0.41,3.11,1.12,4.09l-0.01,0.01c0,0,26.63,37.23,31.16,43
					c4.53,5.77,10.28,8.8,17.96,5.28c7.67-3.52,10.02-13.61,10.94-20.41c0.67-5.03,5.61-11.55,9.08-17.08L371.52,370.22z"/>
				<path class="st3" d="M379.77,385.84c2.53-6.65,1.94-10.68,0.5-12.93c0,0-1.89-1.65-4.74-3.15c-6.19-0.8-13.79,6.47-16.6,11.12
					c-2.81,4.65-4.32,10.27-6.35,17.77c-1.8,6.65-6.31,10.36-8.87,16.62c-1.86,4.54-2.28,8.04-1.03,12.03
					c3.86,3.04,8.5,4.04,14.19,1.43c7.67-3.52,10.02-13.61,10.94-20.41C368.72,401.5,377.45,391.95,379.77,385.84z"/>
				<path class="st1" d="M360.72,383.49c-4.02,7.13-4.8,17-8.18,22.77c-3.38,5.77-8.5,12.16-7.91,17.7
					c0.38,3.62,1.65,5.52,4.03,6.09c1.22,0.21,2.51,0.22,3.87,0.01c0.17-0.03,0.35-0.06,0.52-0.09c1.22-0.24,2.49-0.64,3.82-1.25
					c7.67-3.52,10.02-13.61,10.94-20.41c0.91-6.81,9.65-16.36,11.97-22.47c2.53-6.65,1.94-10.68,0.5-12.93
					C375.38,369.75,366.02,374.09,360.72,383.49z"/>
				<path class="st4" d="M344.07,382.09c-5.36,5.13-6.8,12.99-6.8,12.99c3.16-5.24,8.39-11.59,8.39-11.59L344.07,382.09z"/>
				<g>
					<path class="st2" d="M354.54,401.67c-0.14,0.42-0.29,0.84-0.45,1.25l16.73-2.13c0.24-0.43,0.49-0.86,0.75-1.29L354.54,401.67z"
						/>
					<path class="st2" d="M351.67,407.7c-0.26,0.43-0.53,0.86-0.81,1.29l17.26-2.2c0.11-0.41,0.24-0.82,0.39-1.24L351.67,407.7z"/>
					<path class="st2" d="M345.21,426.7l16.82-2.14c0.33-0.42,0.65-0.86,0.95-1.31l-18.09,2.3
						C344.98,425.96,345.09,426.34,345.21,426.7z"/>
					<path class="st2" d="M345.09,419.86c-0.12,0.41-0.22,0.82-0.3,1.23l20.59-2.62c0.16-0.41,0.3-0.83,0.44-1.25L345.09,419.86z"/>
					<path class="st2" d="M347.86,413.85c-0.25,0.43-0.49,0.85-0.72,1.28l19.94-2.54c0.09-0.41,0.16-0.82,0.24-1.22L347.86,413.85z"
						/>
					<path class="st2" d="M365.08,377.69c-0.42,0.43-0.83,0.88-1.24,1.35l17.62-2.24c-0.03-0.41-0.08-0.8-0.16-1.17L365.08,377.69z"
						/>
					<path class="st2" d="M360.49,383.93c-0.22,0.42-0.44,0.84-0.64,1.27l20.99-2.67c0.11-0.42,0.21-0.83,0.29-1.23L360.49,383.93z"
						/>
					<path class="st2" d="M358,389.91c-0.14,0.41-0.27,0.82-0.4,1.24l20.9-2.66c0.24-0.44,0.46-0.86,0.66-1.27L358,389.91z"/>
					<path class="st2" d="M356.28,395.79c-0.11,0.41-0.23,0.82-0.34,1.23l18.74-2.38c0.29-0.44,0.57-0.87,0.85-1.3L356.28,395.79z"
						/>
				</g>
			</g>
			<g>
				<path class="st5" d="M313.08,356.96c-5.55,3.83-2.81,11.88,0.64,15.73c3.46,3.84,10.07,6.99,15.11,3.15
					c4.63-3.52,1.28-10.9-1.84-14.65C323.74,357.24,317.46,353.94,313.08,356.96z"/>
				<path class="st14" d="M313.08,356.96c-5.55,3.83-2.81,11.88,0.64,15.73c3.46,3.84,10.07,6.99,15.11,3.15
					c4.63-3.52,1.28-10.9-1.84-14.65C323.74,357.24,317.46,353.94,313.08,356.96z"/>
				<path class="st5" d="M331.11,370.98c-0.39,2.73-4.56,6.28-11.62,0.82c-7.2-5.57-7.21-13.61-4.89-15.61
					c-0.52,0.19-1.03,0.43-1.52,0.77c-5.55,3.83-2.81,11.88,0.64,15.73c3.46,3.84,10.07,6.99,15.11,3.15
					C330.48,374.59,331.1,372.86,331.11,370.98z"/>
				<path class="st12" d="M331.11,370.98c-0.39,2.73-4.56,6.28-11.62,0.82c-7.2-5.57-7.21-13.61-4.89-15.61
					c-0.52,0.19-1.03,0.43-1.52,0.77c-5.55,3.83-2.81,11.88,0.64,15.73c3.46,3.84,10.07,6.99,15.11,3.15
					C330.48,374.59,331.1,372.86,331.11,370.98z"/>
			</g>
		</g>
		<g>
			<path class="st3" d="M258.89,228.39v-24.52h-14.99v24.52l0,0c0,1.11,0.73,2.21,2.2,3.06c2.93,1.69,7.67,1.69,10.6,0
				C258.16,230.61,258.89,229.5,258.89,228.39z"/>
			<path class="st7" d="M243.91,223.69c0,1.11,0.73,2.21,2.2,3.06c2.93,1.69,7.67,1.69,10.6,0c1.46-0.85,2.2-1.95,2.19-3.06"/>
			<path class="st7" d="M243.91,219c0,1.11,0.73,2.21,2.2,3.06c2.93,1.69,7.67,1.69,10.6,0c1.46-0.85,2.2-1.95,2.19-3.06"/>
			<path class="st7" d="M243.91,214.3c0,1.11,0.73,2.21,2.2,3.06c2.93,1.69,7.67,1.69,10.6,0c1.46-0.85,2.2-1.95,2.19-3.06"/>
			<path class="st4" d="M247.14,203.87h-3.23v11.2v13.32c0,1.11,0.73,2.21,2.19,3.06c0.32,0.19,0.67,0.34,1.03,0.49v-16.05
				c3.8,0.84,7.77,1.24,11.76,1.05v-13.07H247.14z"/>
		</g>
	</g>
</g>
<g id="mano">

	<g>
		<g id="XMLID_10_">
			<path class="st5" d="M216.48,348.39c-0.49,1.96-0.51,3.93-0.13,5.78c0.16,0.8,0.99,1.46,1.37,1.07l7.9-8.1l6.34,1.57l1.81,6.29
				l-8.28,8.49c-0.31,0.31-0.27,0.65,0.05,0.74c0.19,0.06,0.39,0.11,0.59,0.16c7.08,1.76,14.25-2.56,16.01-9.65
				c1.29-5.19-0.69-10.41-4.62-13.53l10.39-43.31c4.85-0.98,8.94-4.65,10.21-9.77c0.49-1.96,0.51-3.92,0.14-5.78
				c-0.16-0.81-1-1.46-1.37-1.08l-7.9,8.1l-6.34-1.57l-1.81-6.29l8.28-8.49c0.3-0.3,0.25-0.65-0.05-0.74
				c-0.19-0.06-0.39-0.11-0.59-0.16c-7.08-1.76-14.25,2.56-16.01,9.65c-1.29,5.19,0.69,10.41,4.62,13.53l-10.39,43.31
				C221.85,339.61,217.75,343.27,216.48,348.39z"/>
		</g>
		<path id="XMLID_9_" class="st15" d="M216.48,348.39c-0.49,1.96-0.51,3.93-0.13,5.78c0.16,0.8,0.99,1.46,1.37,1.07l7.9-8.1
			l6.34,1.57l1.81,6.29l-8.28,8.49c-0.31,0.31-0.27,0.65,0.05,0.74c0.19,0.06,0.39,0.11,0.59,0.16c7.08,1.76,14.25-2.56,16.01-9.65
			c1.29-5.19-0.69-10.41-4.62-13.53l10.39-43.31c4.85-0.98,8.94-4.65,10.21-9.77c0.49-1.96,0.51-3.92,0.14-5.78
			c-0.16-0.81-1-1.46-1.37-1.08l-7.9,8.1l-6.34-1.57l-1.81-6.29l8.28-8.49c0.3-0.3,0.25-0.65-0.05-0.74
			c-0.19-0.06-0.39-0.11-0.59-0.16c-7.08-1.76-14.25,2.56-16.01,9.65c-1.29,5.19,0.69,10.41,4.62,13.53l-10.39,43.31
			C221.85,339.61,217.75,343.27,216.48,348.39z"/>
	</g>
	<path class="st5" d="M243.12,315.63c-2.21,1.48-4.06,1.56-6.45,0.71c-1.68-0.59-3.2-1.95-3.83-3.32l-5.44,22.68
		c1.15,0.69,2.43,1.22,3.81,1.53c2.57,0.58,5.12,0.34,7.41-0.54l4.94-20.61C243.41,315.94,243.27,315.78,243.12,315.63z"/>
	<g>
		<path class="st3" d="M228.6,312.15c-0.35-3.6,0.13-7.73,1.69-10.24c1.56-2.51,4.09-4.25,5.29-2.18c0.79,1.38-0.9,3.49-1.69,6.08
			c-0.66,2.16-0.16,4.78-0.16,4.78L228.6,312.15z"/>
		<path class="st4" d="M233.89,305.8c0.79-2.59,2.48-4.7,1.69-6.08c-0.26-0.46-0.6-0.72-0.97-0.84l0,0c0.68,0.93-0.92,2.67-2.05,4.9
			c-0.96,1.89-1.4,5.12-1.04,7.47l2.21-0.67C233.72,310.58,233.23,307.96,233.89,305.8z"/>
	</g>
	<path class="st5" d="M247.6,325.38c-1.55,6.93-8.43,11.28-15.35,9.73c-6.93-1.55-11.28-8.43-9.73-15.35
		c1.23-5.47,5.82-9.36,11.09-9.98c0.12,1.67,1.97,3.69,4.1,4.44c2.39,0.85,4.24,0.76,6.46-0.71
		C247.16,316.51,248.6,320.94,247.6,325.38z"/>
	<path class="st5" d="M247.6,325.38c-1.55,6.93-8.43,11.28-15.35,9.73c-6.93-1.55-11.28-8.43-9.73-15.35
		c1.23-5.47,5.82-9.36,11.09-9.98c0.12,1.67,1.97,3.69,4.1,4.44c2.39,0.85,4.24,0.76,6.46-0.71
		C247.16,316.51,248.6,320.94,247.6,325.38z"/>
	<path class="st6" d="M247.6,325.38c0.1-0.43,0.16-0.87,0.22-1.3c-1.77,3.56-6.06,8.54-14.57,7.08c-8.74-1.5-10.55-11.98-9.41-14.83
		c-0.58,1.05-1.04,2.2-1.31,3.43c-1.55,6.93,2.8,13.8,9.73,15.35C239.18,336.66,246.05,332.31,247.6,325.38z"/>
	<g>
		<g>
			<path class="st3" d="M247.67,320.04c4.38-1.77,5.82-5.78,5.15-9.84c-0.68-4.13-6.5-5.65-6.5-5.65l-1.12,4.68
				c0,0,2.87,1.07,2.72,3.06c-0.15,2-2.23,3.05-2.23,3.05S244.28,318.42,247.67,320.04z"/>
			<path class="st4" d="M246.32,304.55l-1.12,4.68c0,0,2.87,1.07,2.72,3.06c-0.15,2-2.23,3.05-2.23,3.05s-1.06,2.33,0.88,4v0
				c-0.47-1.57,0.54-2.33,2.1-4c1.56-1.67,0.94-4.49-0.06-6.26c-0.99-1.77-0.3-3.77-0.3-3.77
				C247.2,304.78,246.32,304.55,246.32,304.55z"/>
		</g>
		<g>
			<path class="st3" d="M247.09,327.09c3.4,1.02,7.52-0.4,8.08-3.17c0.56-2.78-0.37-5.08-3.59-6.96c-0.97,1.36-2.23,2.44-3.91,3.08
				l0.21,1.5C246.27,323.01,246.32,325.37,247.09,327.09z"/>
			<path class="st4" d="M251.58,316.96c-0.97,1.36-2.23,2.44-3.91,3.08l0.21,1.5h4.17c0,0-1.08-0.35-0.77-1.05
				c0.32-0.7,2.06-0.44,2.91,0.65c0.99,1.28,1.05,2.93,0.22,4.31c0.38-0.45,0.65-0.96,0.76-1.53
				C255.73,321.14,254.8,318.84,251.58,316.96z"/>
		</g>
		<g>
			<path class="st3" d="M242.46,333.08c0,0,1.6,1.58,4.57,2.7c1.3,0.49,3.59,0.52,4.82-0.8c1.32-1.41,0.38-2.76-0.53-3.4
				c-2.38-1.68-5.01-2.8-5.01-2.8S242.76,328.78,242.46,333.08z"/>
			<path class="st4" d="M251.32,331.58c-2.38-1.68-5.01-2.8-5.01-2.8s-1.79,0.01-2.93,1.54c0.75-0.75,3.26,0.64,5.3,1.88
				c2.03,1.23,3.66,1.93,2.82,3.08c0.12-0.09,0.24-0.18,0.35-0.3C253.17,333.57,252.24,332.23,251.32,331.58z"/>
		</g>
	</g>
</g>
<g id="pierna">
	<g>
		<g>
			<g>
				<path class="st3" d="M364.78,326.84c-0.37,0-0.75-0.03-1.12-0.11l-63.72-12.03c-3.26-0.62-5.41-3.76-4.79-7.02
					c0.62-3.26,3.76-5.41,7.02-4.79l63.72,12.03c3.26,0.62,5.41,3.76,4.79,7.02C370.13,324.83,367.61,326.84,364.78,326.84z"/>
			</g>
			<g>
				<path class="st13" d="M354.82,312.83c-5.31-1-7.92,10.74-3.69,11.54"/>
				<path class="st13" d="M344.2,310.82c-5.31-1-7.92,10.74-3.69,11.54"/>
				<path class="st13" d="M333.59,308.82c-5.31-1-7.92,10.74-3.69,11.54"/>
				<path class="st13" d="M322.97,306.81c-5.31-1-7.92,10.74-3.69,11.54"/>
				<path class="st13" d="M312.36,304.8c-5.31-1-7.92,10.74-3.69,11.54"/>
			</g>
			<path class="st4" d="M295.04,308.82c0.01,2.82,2.02,5.33,4.89,5.88l63.72,12.03c0.38,0.07,0.75,0.11,1.12,0.11
				c2.83,0,5.36-2.01,5.9-4.9c0.01-0.07,0.02-0.14,0.03-0.22L295.04,308.82z"/>
		</g>
		<g>
			<path class="st5" d="M433.42,274.36c-4.76-1.26-12.25-1.65-18.56,3.38c-5.13,4.1-11.08,22.59-13.07,29l-33.69-0.08l0,0
				c-1.13-0.02-3.51,0.94-4.92,2.34c-5.65,5.6-6.72,11.86-6.23,17.82c0.3,3.68,2.8,6.21,4.59,6.52c0,0,0.01,0,0.01,0
				c0.53,0.11,44.86,9.08,51.14,10.19c10.47,1.85,8.19,1.83,14.38-7.05c4.07-5.84,4.07-14.45,4.07-20.15
				c0-5.7,2.56-15.13,4.72-22.53S438.18,275.62,433.42,274.36z"/>
			<path class="st4" d="M426.66,274.49c-5.6,2.09-9.07,6.98-10.77,14.54c-1.71,7.56-0.19,13.76-1.78,24.62
				c-0.77,5.25-3.44,12.96-5.6,17.05c-2.16,4.09-5.23,5.8-11.03,4.8c-5.8-1-26.14-4-31.47-6.47c-5.33-2.47-4.9-7.82-4.9-7.82
				s5.57,0.06,10.12-1.86c4.55-1.92,4.21-4.1,4.07-5.29l-5.51-7.38l-1.7,0l0,0c-1.13-0.02-3.51,0.94-4.92,2.34
				c-5.65,5.6-6.72,11.86-6.23,17.82c0.3,3.68,2.8,6.21,4.59,6.52c0,0,0.01,0,0.01,0c0.53,0.11,44.86,9.08,51.14,10.19
				c10.47,1.85,8.19,1.83,14.38-7.05c4.07-5.84,4.07-14.45,4.07-20.15c0-5.7,2.56-15.13,4.72-22.53c0.7-2.38,1.18-5.12,1.37-7.78
				C432.98,279.1,428.84,273.67,426.66,274.49z"/>
			<path class="st3" d="M433.42,274.36c-0.3-0.08-0.61-0.16-0.94-0.23c-0.01,0-0.02,0-0.03-0.01c-0.96-0.21-2.01-0.38-3.12-0.48
				c-7.19,1.45-10.58,7.8-11.62,16.54c-1.04,8.74-0.08,18.53-0.73,24.62c-0.65,6.09-4.43,15.89-4.18,22.36
				c0.1,2.51,0.75,5.02,2.22,6.79c7.79,1.37,6.36,0.67,12.03-7.47c4.07-5.84,4.07-14.45,4.07-20.15c0-5.7,2.56-15.13,4.72-22.53
				S438.18,275.62,433.42,274.36z"/>
			<path class="st4" d="M401.79,306.74c-1.57,5.81-2.44,11.61-3.21,16.68c-0.63-4.59-0.88-9.75,0-16.69L401.79,306.74z"/>
			<path class="st1" d="M423,284.35c-3.27,8.39-2,21.16-2.72,29.42c-0.72,8.26-4.45,19.81-3.88,24.19c0.57,4.36,2.76,7.42,6.1,5.47
				c1.56-1.21,2.96-2.62,4.17-4.99c0.98-1.92,1.69-4.04,2.17-5.18c2.31-5.48,2.31-12.19,2.31-16.91c0-5.7,2.56-15.13,4.72-22.53
				c1.62-5.53,2.11-12.95,0.27-16.88C434.69,273.73,426.59,275.12,423,284.35z"/>
			<g>
				<path class="st2" d="M420.56,305.41c0,0.39-0.01,0.78-0.01,1.16l13.98-8.07c0.13-0.46,0.26-0.92,0.38-1.38L420.56,305.41z"/>
				<path class="st2" d="M436.42,277.63l-13.87,8.01c-0.15,0.45-0.28,0.92-0.4,1.39l14.58-8.42
					C436.64,278.27,436.53,277.94,436.42,277.63z"/>
				<path class="st2" d="M432.99,304.45l-12.58,7.26c-0.02,0.41-0.05,0.81-0.07,1.2l12.34-7.12
					C432.77,305.34,432.88,304.9,432.99,304.45z"/>
				<path class="st2" d="M417.99,326.65l13.13-7.58c0.01-0.4,0.01-0.78,0.01-1.16l-12.86,7.42
					C418.18,325.78,418.09,326.22,417.99,326.65z"/>
				<path class="st2" d="M420.68,299.14c-0.01,0.39-0.02,0.78-0.03,1.18l15.87-9.17c0.09-0.43,0.17-0.86,0.25-1.3L420.68,299.14z"/>
				<path class="st2" d="M419.66,318.35c-0.07,0.43-0.15,0.86-0.23,1.29l11.97-6.91c0.05-0.41,0.11-0.83,0.17-1.26L419.66,318.35z"
					/>
				<path class="st2" d="M437.3,284.49c0.01-0.39,0.01-0.78,0-1.16l-16.17,9.34c-0.05,0.41-0.09,0.82-0.13,1.23L437.3,284.49z"/>
				<path class="st2" d="M429.06,332.69c0.18-0.47,0.35-0.96,0.5-1.45l-13.03,7.52c0.08,0.36,0.18,0.69,0.29,0.99L429.06,332.69z"/>
				<path class="st2" d="M430.73,325.56c0.05-0.41,0.09-0.82,0.13-1.23l-14.03,8.12c-0.08,0.44-0.15,0.87-0.21,1.28L430.73,325.56z"
					/>
			</g>
		</g>
		<g>
			<path class="st5" d="M360.9,318.65c7.79,0.74,14.1-2.09,14.41-4.61c0,0,1.88-10.48-11.99-11.6c-13.87-1.13-14.26,9.06-14.26,9.06
				C349.02,313.9,353.11,317.92,360.9,318.65z"/>
			<path class="st14" d="M360.9,318.65c7.79,0.74,14.1-2.09,14.41-4.61c0,0,1.88-10.48-11.99-11.6
				c-13.87-1.13-14.26,9.06-14.26,9.06C349.02,313.9,353.11,317.92,360.9,318.65z"/>
			<path class="st5" d="M375.3,314.05c0,0,0.81-4.51-2.55-7.93c0.54,1.02,2.76,6.1-5.38,8.43c-9.06,2.6-17.37-3.1-17.83-5.34l0,0
				c-0.46,1.31-0.5,2.29-0.5,2.29c-0.03,2.39,4.06,6.41,11.85,7.15C368.68,319.39,375,316.56,375.3,314.05z"/>
			<path class="st12" d="M375.3,314.05c0,0,0.81-4.51-2.55-7.93c0.54,1.02,2.76,6.1-5.38,8.43c-9.06,2.6-17.37-3.1-17.83-5.34l0,0
				c-0.46,1.31-0.5,2.29-0.5,2.29c-0.03,2.39,4.06,6.41,11.85,7.15C368.68,319.39,375,316.56,375.3,314.05z"/>
		</g>
	</g>
</g>
<g id="cabeza">
	<g>
		<g>
			<path class="st5" d="M220.37,168.12c0-18.57,15.05-30.56,33.62-30.56c18.57,0,33.62,12,33.62,30.56v20.33
				c0,0-6.69,10.52-33.62,10.52s-33.62-10.03-33.62-10.03V168.12z"/>
			<path class="st16" d="M259.33,144.05c-0.81,0.43-1.64,1.02-1.88,1.9c-0.24,0.86,0.16,1.8,0.79,2.43
				c0.63,0.63,1.46,1.02,2.27,1.38c4.42,1.95,9.02,3.48,13.72,4.57c1.18,0.27,3.49,1.09,4.36-0.01c1.04-1.32,0.41-4.03-0.94-5.73
				c-2.69-3.38-4.79-4.5-7.98-5.41C266.27,142.21,262.48,142.37,259.33,144.05z"/>
			<path class="st17" d="M287.6,175.64c0,0-1.88,10.17-15.2,15.15c-13.32,4.98-27.78,3.38-36.62,1.16c0,0,18.92,9.23,38.45,0.37
				C291.32,184.57,287.6,175.64,287.6,175.64z"/>
			<path class="st4" d="M265.61,139.24c-3.62-1.1-7.54-1.69-11.62-1.69c-18.57,0-33.62,12-33.62,30.56v20.81
				c0,0,2.75,4.1,11.76,7.06c-1.41-13.51-3.22-30.75,2.16-41.3C240.44,142.64,257.53,136.89,265.61,139.24z"/>
		</g>
		<g>
			<path class="st1" d="M252.96,181.92L252.96,181.92c-2.75,0-4.98-2.23-4.98-4.98v-2.31c0-2.75,2.23-4.98,4.98-4.98l0,0
				c2.75,0,4.98,2.23,4.98,4.98v2.31C257.94,179.69,255.71,181.92,252.96,181.92z"/>
			<path class="st1" d="M278.02,173.93L278.02,173.93c-2.36,0.88-3.62-0.22-4.07-1.45c-0.28-0.76-0.54-2.68-0.31-4.97
				c0.24-2.4,1.41-4.24,3.57-5.38l0,0c2.16-1.14,3.87,0.29,4.22,1.64c0.27,1.03,0.39,2.56,0.25,4.48
				C281.54,170.15,280.35,172.91,278.02,173.93z"/>
		</g>
		<g>
			<path class="st5" d="M291.08,174.34c-1.36-1.55-3.48-1.73-3.48-1.73v3.03c0,4.97-3.28,9.93-9.85,13.72
				c-11.4,6.58-28.96,7.44-41.98,2.59v-1.05c0-3.93-2.76-8.7-6.16-10.66c-3.4-1.96-6.16-0.37-6.16,3.55
				c-2.06-2.58-3.1-5.36-3.1-8.15c-1.15,0-2.67,0.62-2.67,5c0,5.45-0.26,11.56,4.91,18.32c8.34,10.91,30.31,20.53,49.21,12.98
				c20.15-8.04,20.26-23.13,20.26-29.27C292.07,178.15,292.43,175.89,291.08,174.34z"/>
			<path class="st6" d="M291.08,174.34c-1.36-1.55-3.48-1.73-3.48-1.73v3.03c0,4.97-3.28,9.93-9.85,13.72
				c-11.4,6.58-28.96,7.44-41.98,2.59v-1.05c0-3.93-2.76-8.7-6.16-10.66c-3.4-1.96-6.16-0.37-6.16,3.55
				c-2.06-2.58-3.1-5.36-3.1-8.15c-1.15,0-2.67,0.62-2.67,5c0,5.45-0.26,11.56,4.91,18.32c8.34,10.91,30.31,20.53,49.21,12.98
				c20.15-8.04,20.26-23.13,20.26-29.27C292.07,178.15,292.43,175.89,291.08,174.34z"/>
			<path class="st4" d="M260.19,213.09c-22.24-0.34-32.96-11.9-35.78-17.1c-2.82-5.2-2.56-10.52-0.94-9.84v-2.36
				c-2.06-2.58-3.1-5.36-3.1-8.15c-1.15,0-2.67,0.62-2.67,5c0,5.45-0.26,11.56,4.91,18.32c8.34,10.91,30.31,20.53,49.21,12.98
				c5.53-2.21,9.55-4.95,12.47-7.89C279.16,207.94,270.91,213.25,260.19,213.09z"/>
			<path class="st17" d="M230.59,180.89c2.11,1.63,3.7,5.12,3.7,11.93l1.49-0.87v-1.05C235.78,187.36,233.53,183.13,230.59,180.89z"
				/>
		</g>
		<g>
			<path class="st5" d="M287.6,175.64c0,4.97-3.28,9.93-9.85,13.72c-11.4,6.58-28.96,7.44-41.98,2.59l-1.49,0.87
				c0,0,18.2,9.98,38.74,1.89c19.17-7.56,18.76-17.76,18.04-20.36c-1.36-1.55-3.48-1.73-3.48-1.73V175.64z"/>
			<path class="st18" d="M287.6,175.64c0,4.97-3.28,9.93-9.85,13.72c-11.4,6.58-28.96,7.44-41.98,2.59l-1.49,0.87
				c0,0,18.2,9.98,38.74,1.89c19.17-7.56,18.76-17.76,18.04-20.36c-1.36-1.55-3.48-1.73-3.48-1.73V175.64z"/>
		</g>
		<g>
			<path class="st1" d="M228.74,183.62c1.4,0.81,2.54,2.78,2.54,4.4s-1.14,2.28-2.54,1.47c-1.4-0.81-2.54-2.78-2.54-4.4
				S227.33,182.81,228.74,183.62z"/>
			<path class="st3" d="M228.74,183.62c-0.46-0.26-0.88-0.36-1.25-0.33c-0.25,0.31-0.4,0.76-0.4,1.33c0,1.62,1.14,3.59,2.54,4.4
				c0.46,0.26,0.88,0.36,1.25,0.33c0.25-0.31,0.4-0.76,0.4-1.33C231.28,186.4,230.14,184.43,228.74,183.62z"/>
		</g>
		<g>
			<path class="st5" d="M223.47,183.79c-2.06-2.58-3.1-5.36-3.1-8.15c-0.49,0-1.04,0.11-1.52,0.58c-0.45,1.12-0.57,2.77,0.36,5.01
				c1.46,3.49,4.25,4.92,4.25,4.92S223.37,185.47,223.47,183.79z"/>
			<path class="st11" d="M223.47,183.79c-2.06-2.58-3.1-5.36-3.1-8.15c-0.49,0-1.04,0.11-1.52,0.58c-0.45,1.12-0.57,2.77,0.36,5.01
				c1.46,3.49,4.25,4.92,4.25,4.92S223.37,185.47,223.47,183.79z"/>
		</g>
	</g>
	<g>
		<path class="st3" d="M250.17,144.19v-18.05h-4.38v18.05l0,0c0,0.32,0.21,0.65,0.64,0.89c0.86,0.49,2.24,0.49,3.1,0
			C249.95,144.84,250.17,144.51,250.17,144.19z"/>
		<path class="st4" d="M245.78,129.23c0.69,0.19,1.41,0.3,2.15,0.3c0.77,0,1.52-0.11,2.23-0.32v-3.07h-4.38V129.23z"/>
		<g>
			<circle class="st5" cx="247.94" cy="119.42" r="8.14"/>
			<path class="st4" d="M247.94,123.68c-5.87-1.04-7.89-6.25-5.3-10.44c-1.74,1.49-2.84,3.7-2.84,6.17c0,4.5,3.65,8.14,8.14,8.14
				c4.5,0,8.14-3.65,8.14-8.14C255.73,121.97,253.15,124.6,247.94,123.68z"/>
			<path class="st19" d="M247.62,116.68c1.28,0.37,2.5,0.94,3.59,1.7c0.69,0.48,1.79,1.19,2.58,0.47c0.69-0.62,0.58-2.05,0.28-2.81
				c-0.38-0.97-1.21-1.93-2.11-2.45c-1.2-0.7-2.49-0.96-3.86-0.71c-0.85,0.16-2.22,0.58-2.45,1.55
				C245.4,115.53,246.72,116.42,247.62,116.68z"/>
		</g>
		<g>
			<g>
				<path class="st20" d="M247.98,105.57c-0.55,0-1-0.45-1-1v-7.02c0-0.55,0.45-1,1-1c0.55,0,1,0.45,1,1v7.02
					C248.98,105.13,248.53,105.57,247.98,105.57z"/>
			</g>
			<g>
				<path class="st20" d="M255.39,107.58c-0.17,0-0.34-0.04-0.5-0.13c-0.48-0.28-0.64-0.89-0.37-1.37l3.51-6.08
					c0.28-0.48,0.89-0.64,1.37-0.37c0.48,0.28,0.64,0.89,0.37,1.37l-3.51,6.08C256.08,107.4,255.74,107.58,255.39,107.58z"/>
			</g>
			<g>
				<path class="st20" d="M260.81,113.03c-0.35,0-0.68-0.18-0.87-0.5c-0.28-0.48-0.11-1.09,0.37-1.37l6.08-3.51
					c0.48-0.28,1.09-0.11,1.37,0.37c0.28,0.48,0.11,1.09-0.37,1.37l-6.08,3.51C261.16,112.99,260.98,113.03,260.81,113.03z"/>
			</g>
			<g>
				<path class="st20" d="M269.81,120.46h-7.02c-0.55,0-1-0.45-1-1c0-0.55,0.45-1,1-1h7.02c0.55,0,1,0.45,1,1
					C270.81,120.01,270.36,120.46,269.81,120.46z"/>
			</g>
			<g>
				<path class="st20" d="M266.86,131.39c-0.17,0-0.34-0.04-0.5-0.13l-6.08-3.51c-0.48-0.28-0.64-0.89-0.37-1.37
					c0.28-0.48,0.89-0.64,1.37-0.37l6.08,3.51c0.48,0.28,0.64,0.89,0.37,1.37C267.54,131.21,267.2,131.39,266.86,131.39z"/>
			</g>
			<g>
				<path class="st20" d="M228.98,131.32c-0.35,0-0.68-0.18-0.87-0.5c-0.28-0.48-0.11-1.09,0.37-1.37l6.08-3.51
					c0.48-0.28,1.09-0.11,1.37,0.37c0.28,0.48,0.11,1.09-0.37,1.37l-6.08,3.51C229.32,131.28,229.15,131.32,228.98,131.32z"/>
			</g>
			<g>
				<path class="st20" d="M233.09,120.38h-7.02c-0.55,0-1-0.45-1-1c0-0.55,0.45-1,1-1h7.02c0.55,0,1,0.45,1,1
					C234.09,119.93,233.65,120.38,233.09,120.38z"/>
			</g>
			<g>
				<path class="st20" d="M235.1,112.96c-0.17,0-0.34-0.04-0.5-0.13l-6.08-3.51c-0.48-0.28-0.64-0.89-0.37-1.37
					c0.28-0.48,0.89-0.64,1.37-0.37l6.08,3.51c0.48,0.28,0.64,0.89,0.37,1.37C235.78,112.79,235.45,112.96,235.1,112.96z"/>
			</g>
			<g>
				<path class="st20" d="M240.55,107.54c-0.35,0-0.68-0.18-0.87-0.5l-3.51-6.08c-0.28-0.48-0.11-1.09,0.37-1.37
					c0.48-0.28,1.09-0.11,1.37,0.37l3.51,6.08c0.28,0.48,0.11,1.09-0.37,1.37C240.89,107.5,240.72,107.54,240.55,107.54z"/>
			</g>
		</g>
	</g>
</g>
<g id="_x34_04_Error">
	<g id="_x34_04_3_">
		<g id="Shadow_1_">
			<path class="st20" d="M171.44,82.27l3.23-1.86v-6.26L171.44,82.27z"/>
		</g>
		<g id="_x34_04_4_">
			<g>
				<path class="st5" d="M101.91,135.41c-0.08-0.07-0.16-0.13-0.24-0.18c-0.32-0.18-7.15-4.12-7.15-4.12V97.24
					c0-0.79-0.19-1.37-0.56-1.73c-0.07-0.07-0.15-0.13-0.23-0.17c-0.32-0.19-7.56-4.36-7.63-4.41c-0.33-0.2-0.7-0.17-1.12,0.07
					l-10.61,6.13c-0.61,0.35-1.09,0.76-1.44,1.21c-0.35,0.46-0.74,1.2-1.16,2.24l-21.02,52.94c-0.61,1.58-0.91,3.31-0.91,5.18v11.47
					c0,0.79,0.19,1.37,0.56,1.73c0.08,0.07,0.16,0.13,0.24,0.18c0.32,0.18,7.56,4.36,7.64,4.41c0.32,0.19,0.69,0.16,1.11-0.08
					l14.5-8.37v2.21c0,0.79,0.19,1.37,0.56,1.73c0.07,0.07,0.15,0.13,0.23,0.17c0.32,0.19,7.57,4.37,7.64,4.41
					c0.32,0.19,0.7,0.16,1.11-0.08l9.21-5.32c0.51-0.3,0.96-0.84,1.34-1.64c0.37-0.79,0.56-1.59,0.56-2.38v-11.04l6.05-3.49
					c0.51-0.3,0.96-0.84,1.34-1.64c0.37-0.79,0.56-1.59,0.56-2.38v-11.47C102.47,136.35,102.28,135.77,101.91,135.41z"/>
				<g>
					<path class="st4" d="M80.52,102.74l-0.04,0.13c-0.33,0.46-0.69,1.17-1.07,2.12l-21.02,52.94c-0.27,0.7-0.48,1.42-0.62,2.17
						l-7.7-4.44c0.15-0.74,0.35-1.46,0.61-2.15l21.02-52.94c0.42-1.04,0.81-1.79,1.17-2.24c0,0,0-0.01,0.01-0.01L80.52,102.74z"/>
					<path class="st10" d="M58.18,176.44c-0.87-0.5-7.24-4.18-7.55-4.35c-0.08-0.05-0.16-0.11-0.24-0.19
						c-0.38-0.36-0.56-0.93-0.56-1.73v-11.46c0-1.05,0.11-2.05,0.3-3.01l7.64,4.41c-0.2,0.95-0.29,1.96-0.29,3.01v11.47
						c0,0.79,0.19,1.36,0.56,1.72C58.08,176.36,58.13,176.4,58.18,176.44z"/>
					<polygon class="st10" points="81.87,126.2 81.87,146.11 75.44,142.4 					"/>
					<polygon class="st21" points="81.87,146.11 71.61,152.03 75.44,142.4 					"/>
					<path class="st10" d="M82.08,176.4c0.05,0.04,0.08,0.08,0.13,0.11c-0.86-0.49-7.25-4.18-7.55-4.35
						c-0.08-0.05-0.16-0.1-0.23-0.18c-0.38-0.36-0.56-0.94-0.56-1.73v-2.21l7.64-4.41v11.04C81.52,175.46,81.71,176.04,82.08,176.4z
						"/>
					<path class="st4" d="M101.58,135.19c-0.3-0.13-0.64-0.09-1.01,0.12l-6.05,3.49v-7.69C94.52,131.11,100.75,134.7,101.58,135.19z
						"/>
					<path class="st22" d="M93.69,95.31c-0.31-0.16-0.67-0.12-1.06,0.1l-10.61,6.13c-0.61,0.36-1.08,0.75-1.44,1.2l-7.64-4.41
						c0.35-0.45,0.83-0.85,1.43-1.2L84.98,91c0.42-0.24,0.79-0.26,1.12-0.07C86.18,90.97,92.97,94.89,93.69,95.31z"/>
				</g>
				<path class="st5" d="M83.42,176.5c-0.52,0.3-0.96,0.27-1.34-0.1c-0.37-0.36-0.56-0.94-0.56-1.73v-11.04l-22.15,12.79
					c-0.52,0.3-0.96,0.27-1.34-0.1c-0.38-0.36-0.56-0.94-0.56-1.73v-11.47c0-1.88,0.3-3.6,0.91-5.18l21.02-52.94
					c0.42-1.04,0.81-1.78,1.16-2.24c0.35-0.45,0.83-0.86,1.44-1.21l10.61-6.13c0.51-0.3,0.96-0.26,1.34,0.1
					c0.37,0.36,0.56,0.94,0.56,1.73v41.56l6.05-3.49c0.51-0.3,0.96-0.26,1.34,0.09c0.37,0.36,0.56,0.94,0.56,1.73v11.47
					c0,0.79-0.19,1.59-0.56,2.38c-0.38,0.8-0.82,1.34-1.34,1.64l-6.05,3.49v11.04c0,0.8-0.19,1.59-0.56,2.38
					c-0.38,0.79-0.82,1.34-1.34,1.64L83.42,176.5z M81.87,146.11V126.2l-10.26,25.84L81.87,146.11z"/>
			</g>
			<g>
				<path class="st5" d="M151.19,89.85c-0.14-3.81-0.62-7.27-1.44-10.37c-0.82-3.1-2.06-5.5-3.73-7.21c-0.59-0.6-1.23-1.1-1.92-1.51
					c-1.28-0.75-6.96-4.02-7.66-4.42c-1.27-0.74-2.73-1.15-4.36-1.24c-2.53-0.13-5.56,0.83-9.07,2.85
					c-3.51,2.03-6.54,4.57-9.07,7.62c-2.53,3.05-4.63,6.39-6.29,10.02c-1.66,3.63-2.91,7.47-3.73,11.51
					c-0.82,4.05-1.3,8.06-1.44,12.03c-0.09,3.16-0.14,6.43-0.14,9.82c0,3.39,0.05,6.54,0.14,9.44c0.14,3.81,0.62,7.27,1.44,10.37
					c0.82,3.1,2.06,5.5,3.73,7.21c0.58,0.6,1.22,1.1,1.9,1.5c1.28,0.75,7.04,4.07,7.78,4.49c1.25,0.7,2.67,1.1,4.26,1.17
					c2.53,0.12,5.55-0.83,9.07-2.85c3.51-2.03,6.54-4.57,9.07-7.62c2.53-3.05,4.63-6.39,6.29-10.02c1.66-3.63,2.91-7.47,3.73-11.51
					c0.82-4.04,1.3-8.06,1.44-12.03c0.09-3.01,0.14-6.21,0.14-9.6S151.28,92.9,151.19,89.85z M123.41,128.32
					c-0.15-1.07-0.24-2.25-0.27-3.55c-0.24-6-0.24-12.06,0-18.18c0.05-1.83,0.21-3.58,0.49-5.26c0.28-1.68,0.7-3.24,1.27-4.68
					c0.56-1.44,1.31-2.76,2.25-3.95c0.83-1.06,1.86-1.95,3.05-2.71c0.15,1.07,0.27,2.24,0.34,3.51c0.19,5.88,0.19,11.94,0,18.18
					c-0.05,1.83-0.2,3.58-0.46,5.24c-0.26,1.66-0.68,3.22-1.27,4.68c-0.59,1.46-1.35,2.78-2.29,3.97
					C125.68,126.64,124.64,127.55,123.41,128.32z"/>
				<g>
					<path class="st4" d="M117.13,151.86c-1.27-0.72-6.38-3.67-7.58-4.37c-0.69-0.4-1.32-0.91-1.9-1.51
						c-1.67-1.71-2.91-4.11-3.73-7.21c-0.82-3.1-1.3-6.56-1.44-10.37c-0.09-2.91-0.14-6.05-0.14-9.44c0-3.4,0.05-6.67,0.14-9.83
						c0.14-3.98,0.62-7.99,1.44-12.04c0.57-2.85,1.36-5.59,2.37-8.24l7.63,4.42c-1,2.64-1.78,5.38-2.35,8.23
						c-0.83,4.05-1.31,8.06-1.45,12.04c-0.09,3.15-0.14,6.43-0.14,9.83c0,3.39,0.05,6.53,0.14,9.44c0.14,3.81,0.62,7.28,1.45,10.37
						c0.81,3.1,2.06,5.51,3.72,7.21C115.85,150.98,116.47,151.47,117.13,151.86z"/>
					<path class="st22" d="M143.81,70.6c-1.2-0.64-2.57-1-4.08-1.08c-2.53-0.12-5.55,0.83-9.07,2.85c-3.51,2.03-6.53,4.57-9.06,7.62
						c-2.53,3.05-4.63,6.38-6.3,10.01c-0.25,0.55-0.49,1.1-0.72,1.67c-0.22,0.54-0.42,1.07-0.63,1.62h-0.01l-7.63-4.42
						c0.18-0.48,0.37-0.96,0.56-1.43c0.25-0.62,0.51-1.23,0.79-1.84c1.67-3.63,3.76-6.96,6.29-10.02c2.53-3.04,5.56-5.58,9.07-7.61
						c3.51-2.03,6.54-2.97,9.07-2.85c1.63,0.08,3.09,0.49,4.36,1.23C137.1,66.72,142.13,69.61,143.81,70.6z"/>
					<path class="st10" d="M138.19,116.09c-0.05,1.83-0.21,3.58-0.46,5.24c-0.25,1.67-0.68,3.22-1.26,4.68
						c-0.25,0.63-0.55,1.24-0.88,1.83l-7.64-4.41c0.32-0.58,0.61-1.2,0.87-1.83c0.58-1.46,1.01-3.01,1.27-4.68
						c0.25-1.67,0.4-3.42,0.45-5.24c0.19-6.24,0.19-12.3,0-18.18c-0.07-1.27-0.18-2.44-0.33-3.51c0,0,0.2-0.14,0.45-0.29
						c1.4-0.84,2.58-1.16,3.52-1.05c0.93,0.11,1.68,0.56,2.25,1.36c0.56,0.79,0.97,1.87,1.23,3.24c0.25,1.36,0.43,2.93,0.53,4.68
						C138.36,103.79,138.36,109.85,138.19,116.09z"/>
					<path class="st21" d="M135.59,127.84c-0.41,0.76-0.88,1.48-1.41,2.15c-0.94,1.2-2.11,2.19-3.52,3
						c-1.4,0.82-2.57,1.17-3.51,1.05c-0.94-0.1-1.7-0.55-2.29-1.33c-0.58-0.78-1.01-1.85-1.26-3.22c-0.08-0.38-0.13-0.77-0.19-1.18
						c1.22-0.76,2.28-1.68,3.12-2.75c0.53-0.67,1.01-1.38,1.42-2.15L135.59,127.84z"/>
				</g>
				<path class="st5" d="M130.66,72.37c3.51-2.03,6.54-2.98,9.07-2.85c2.53,0.13,4.63,1.05,6.29,2.75c1.66,1.71,2.91,4.11,3.73,7.21
					c0.82,3.1,1.3,6.56,1.44,10.37c0.09,3.05,0.14,6.27,0.14,9.66s-0.05,6.59-0.14,9.6c-0.14,3.98-0.62,7.99-1.44,12.03
					c-0.82,4.05-2.06,7.89-3.73,11.51c-1.66,3.63-3.76,6.97-6.29,10.02c-2.53,3.05-5.56,5.59-9.07,7.62
					c-3.51,2.03-6.54,2.98-9.07,2.85c-2.53-0.13-4.63-1.04-6.29-2.75c-1.66-1.71-2.91-4.11-3.73-7.21c-0.82-3.1-1.3-6.56-1.44-10.37
					c-0.09-2.9-0.14-6.05-0.14-9.44s0.05-6.67,0.14-9.82c0.14-3.98,0.62-7.99,1.44-12.03c0.82-4.04,2.06-7.88,3.73-11.51
					c1.66-3.63,3.76-6.97,6.29-10.02C124.12,76.94,127.15,74.4,130.66,72.37z M138.18,116.09c0.19-6.24,0.19-12.3,0-18.18
					c-0.09-1.75-0.27-3.31-0.53-4.67c-0.26-1.37-0.67-2.44-1.23-3.24c-0.56-0.79-1.31-1.24-2.25-1.35
					c-0.94-0.11-2.11,0.24-3.51,1.06c-1.41,0.81-2.58,1.81-3.51,3c-0.94,1.19-1.69,2.51-2.25,3.95c-0.56,1.44-0.98,3-1.27,4.68
					c-0.28,1.68-0.45,3.43-0.49,5.26c-0.24,6.13-0.24,12.19,0,18.18c0.05,1.78,0.2,3.35,0.46,4.72c0.26,1.37,0.68,2.44,1.27,3.22
					c0.59,0.78,1.35,1.23,2.28,1.33c0.94,0.11,2.11-0.24,3.51-1.06c1.41-0.81,2.58-1.81,3.51-3c0.94-1.19,1.7-2.51,2.28-3.97
					c0.59-1.46,1.01-3.02,1.27-4.68C137.98,119.67,138.13,117.92,138.18,116.09z"/>
			</g>
			<g>
				<path class="st5" d="M205.13,75.81c-0.08-0.07-0.16-0.13-0.24-0.18c-0.32-0.18-7.15-4.12-7.15-4.12V37.64
					c0-0.79-0.19-1.37-0.56-1.73c-0.07-0.07-0.15-0.13-0.23-0.17c-0.32-0.19-7.56-4.36-7.63-4.41c-0.33-0.2-0.7-0.17-1.12,0.07
					l-10.62,6.13c-0.61,0.35-1.09,0.76-1.44,1.21c-0.35,0.46-0.74,1.2-1.16,2.24l-21.02,52.94c-0.61,1.58-0.91,3.31-0.91,5.18v11.47
					c0,0.79,0.19,1.37,0.56,1.73c0.08,0.07,0.16,0.13,0.24,0.18c0.32,0.18,7.56,4.36,7.64,4.41c0.32,0.19,0.69,0.16,1.11-0.08
					l14.5-8.37v2.21c0,0.79,0.19,1.37,0.56,1.73c0.07,0.07,0.15,0.13,0.23,0.17c0.32,0.19,7.57,4.37,7.64,4.41
					c0.32,0.19,0.7,0.16,1.11-0.08l9.21-5.32c0.51-0.3,0.96-0.84,1.34-1.64c0.37-0.79,0.56-1.59,0.56-2.38V96.53l6.05-3.49
					c0.51-0.3,0.96-0.84,1.34-1.64c0.37-0.79,0.56-1.59,0.56-2.38V77.54C205.69,76.75,205.51,76.17,205.13,75.81z"/>
				<g>
					<path class="st4" d="M183.74,43.15l-0.04,0.13c-0.33,0.46-0.69,1.17-1.07,2.12l-21.02,52.94c-0.27,0.7-0.48,1.42-0.62,2.17
						l-7.7-4.44c0.15-0.74,0.35-1.46,0.61-2.15l21.02-52.94c0.42-1.04,0.81-1.79,1.17-2.24c0,0,0-0.01,0.01-0.01L183.74,43.15z"/>
					<path class="st10" d="M161.4,116.84c-0.87-0.5-7.24-4.18-7.55-4.35c-0.08-0.05-0.16-0.11-0.24-0.19
						c-0.38-0.36-0.56-0.93-0.56-1.73V99.11c0-1.05,0.11-2.05,0.3-3.01l7.64,4.41c-0.2,0.95-0.29,1.96-0.29,3.01V115
						c0,0.79,0.19,1.36,0.56,1.72C161.31,116.77,161.35,116.8,161.4,116.84z"/>
					<polygon class="st10" points="185.1,66.6 185.1,86.52 178.66,82.8 					"/>
					<polygon class="st21" points="185.1,86.52 174.83,92.44 178.66,82.8 					"/>
					<path class="st10" d="M185.31,116.8c0.05,0.04,0.08,0.08,0.13,0.11c-0.86-0.49-7.25-4.18-7.55-4.35
						c-0.08-0.05-0.16-0.1-0.23-0.18c-0.38-0.36-0.56-0.94-0.56-1.73v-2.21l7.64-4.41v11.04
						C184.74,115.86,184.93,116.45,185.31,116.8z"/>
					<path class="st4" d="M204.81,75.59c-0.3-0.13-0.64-0.09-1.01,0.12l-6.05,3.49v-7.69C197.75,71.51,203.97,75.1,204.81,75.59z"/>
					<path class="st22" d="M196.91,35.71c-0.31-0.16-0.67-0.12-1.06,0.1l-10.61,6.13c-0.61,0.36-1.08,0.75-1.44,1.2l-7.64-4.41
						c0.35-0.45,0.83-0.85,1.43-1.2l10.62-6.13c0.42-0.24,0.79-0.26,1.12-0.07C189.4,31.37,196.2,35.3,196.91,35.71z"/>
				</g>
				<path class="st5" d="M186.64,116.9c-0.52,0.3-0.96,0.27-1.34-0.1c-0.38-0.36-0.56-0.94-0.56-1.73v-11.04l-22.15,12.79
					c-0.52,0.3-0.96,0.27-1.34-0.1c-0.38-0.36-0.56-0.94-0.56-1.73v-11.47c0-1.88,0.3-3.6,0.91-5.18l21.02-52.94
					c0.42-1.04,0.81-1.78,1.16-2.24c0.35-0.45,0.83-0.86,1.44-1.21l10.62-6.13c0.51-0.3,0.96-0.26,1.34,0.1
					c0.37,0.36,0.56,0.94,0.56,1.73v41.56l6.05-3.49c0.51-0.3,0.96-0.26,1.34,0.09c0.37,0.36,0.56,0.94,0.56,1.73v11.47
					c0,0.79-0.19,1.59-0.56,2.38c-0.38,0.8-0.82,1.34-1.34,1.64l-6.05,3.49v11.04c0,0.8-0.19,1.59-0.56,2.38
					c-0.38,0.79-0.82,1.34-1.34,1.64L186.64,116.9z M185.1,86.51V66.6l-10.26,25.84L185.1,86.51z"/>
			</g>
		</g>
		<g>
			<path class="st3" d="M106.61,191.27c0.15-0.09,0.28-0.08,0.38,0.03c0.11,0.1,0.16,0.27,0.16,0.5v3.28c0,0.23-0.05,0.46-0.16,0.68
				c-0.11,0.23-0.23,0.38-0.38,0.47l-9.54,5.51c-0.15,0.08-0.28,0.08-0.38-0.03c-0.11-0.1-0.16-0.27-0.16-0.49V181.2
				c0-0.23,0.05-0.45,0.16-0.68c0.11-0.23,0.23-0.38,0.38-0.47l9.38-5.41c0.15-0.08,0.27-0.08,0.38,0.03
				c0.11,0.1,0.16,0.27,0.16,0.49v3.28c0,0.23-0.05,0.45-0.16,0.68c-0.11,0.23-0.23,0.38-0.38,0.47l-6.2,3.58v3.35l5.75-3.32
				c0.15-0.08,0.27-0.08,0.38,0.03c0.11,0.1,0.16,0.27,0.16,0.49V187c0,0.23-0.05,0.45-0.16,0.68c-0.11,0.23-0.23,0.38-0.38,0.47
				l-5.75,3.32v3.47L106.61,191.27z"/>
			<path class="st3" d="M115.97,169.15c0.89-0.51,1.68-0.82,2.37-0.94c0.7-0.11,1.29-0.02,1.78,0.27c0.49,0.3,0.87,0.82,1.13,1.56
				c0.26,0.75,0.39,1.72,0.39,2.92c0,1.55-0.21,2.95-0.62,4.22c-0.42,1.26-1.01,2.38-1.77,3.36l2.49,5.93
				c0.04,0.1,0.06,0.2,0.06,0.3c0,0.19-0.04,0.37-0.13,0.56c-0.09,0.18-0.19,0.31-0.31,0.38l-2.73,1.58
				c-0.27,0.15-0.46,0.17-0.57,0.05c-0.12-0.12-0.21-0.25-0.27-0.4l-2.23-5.34l-1.85,1.07v6.63c0,0.23-0.05,0.46-0.16,0.68
				c-0.11,0.23-0.24,0.38-0.38,0.47l-2.64,1.52c-0.15,0.09-0.28,0.08-0.38-0.03c-0.11-0.1-0.16-0.27-0.16-0.5v-20.01
				c0-0.23,0.05-0.45,0.16-0.68c0.11-0.23,0.23-0.38,0.38-0.47L115.97,169.15z M113.7,179.84l2.27-1.31c0.56-0.33,1.03-0.76,1.4-1.3
				c0.37-0.54,0.55-1.25,0.55-2.12c0-0.87-0.18-1.36-0.55-1.48c-0.37-0.12-0.84-0.01-1.4,0.31l-2.27,1.31V179.84z"/>
			<path class="st3" d="M130.46,160.78c0.89-0.51,1.68-0.82,2.37-0.94c0.7-0.11,1.29-0.02,1.78,0.27c0.49,0.29,0.87,0.82,1.13,1.56
				c0.26,0.75,0.39,1.72,0.39,2.92c0,1.55-0.21,2.95-0.62,4.22c-0.42,1.26-1.01,2.38-1.77,3.36l2.49,5.93
				c0.04,0.1,0.06,0.2,0.06,0.31c0,0.19-0.04,0.37-0.13,0.56c-0.09,0.18-0.19,0.31-0.31,0.38l-2.73,1.58
				c-0.27,0.16-0.46,0.17-0.57,0.05c-0.11-0.12-0.2-0.25-0.27-0.4l-2.23-5.34l-1.85,1.07v6.63c0,0.23-0.05,0.46-0.16,0.68
				c-0.11,0.23-0.24,0.38-0.38,0.47l-2.64,1.52c-0.15,0.08-0.27,0.08-0.38-0.03c-0.11-0.1-0.16-0.27-0.16-0.5v-20.01
				c0-0.23,0.05-0.45,0.16-0.68c0.11-0.23,0.23-0.38,0.38-0.47L130.46,160.78z M128.18,171.48l2.27-1.31
				c0.56-0.33,1.03-0.76,1.4-1.3c0.37-0.54,0.55-1.25,0.55-2.12c0-0.87-0.19-1.36-0.55-1.48c-0.37-0.12-0.83-0.01-1.4,0.31
				l-2.27,1.31V171.48z"/>
			<path class="st3" d="M138.48,164.23c0.04-1.18,0.2-2.36,0.49-3.55c0.29-1.19,0.7-2.31,1.23-3.37c0.53-1.06,1.17-2.03,1.93-2.91
				c0.76-0.88,1.63-1.61,2.62-2.18c0.98-0.56,1.85-0.85,2.62-0.84c0.76,0,1.41,0.23,1.94,0.68c0.53,0.45,0.94,1.1,1.23,1.95
				c0.29,0.86,0.45,1.85,0.49,2.98c0.03,0.87,0.04,1.79,0.04,2.77c0,0.97-0.01,1.89-0.04,2.75c-0.04,1.18-0.2,2.36-0.49,3.55
				c-0.29,1.19-0.7,2.32-1.23,3.39c-0.53,1.07-1.18,2.04-1.94,2.92c-0.76,0.87-1.64,1.6-2.62,2.16c-0.99,0.57-1.87,0.86-2.62,0.87
				c-0.76,0-1.4-0.22-1.93-0.68c-0.53-0.46-0.94-1.12-1.23-1.97c-0.29-0.86-0.45-1.85-0.49-2.98c-0.03-0.83-0.04-1.73-0.04-2.7
				S138.45,165.14,138.48,164.23z M147.31,164.49c0.01-0.38,0.03-0.8,0.04-1.26c0.01-0.46,0.02-0.93,0.02-1.41
				c0-0.47-0.01-0.93-0.02-1.37c-0.02-0.44-0.03-0.82-0.04-1.17c-0.03-0.5-0.1-0.94-0.21-1.3c-0.11-0.37-0.28-0.65-0.48-0.85
				c-0.21-0.2-0.47-0.3-0.77-0.31c-0.31-0.01-0.67,0.11-1.09,0.35c-0.41,0.24-0.78,0.54-1.09,0.91c-0.31,0.36-0.57,0.77-0.77,1.21
				c-0.21,0.44-0.37,0.91-0.48,1.41c-0.11,0.5-0.19,1.01-0.21,1.55c-0.03,0.37-0.04,0.77-0.05,1.22c-0.01,0.45-0.01,0.91-0.01,1.38
				c0,0.47,0,0.94,0.01,1.39c0.01,0.45,0.02,0.85,0.05,1.21c0.05,1,0.28,1.73,0.69,2.17c0.41,0.44,1.03,0.43,1.86-0.05
				c0.83-0.48,1.45-1.18,1.85-2.09C147.01,166.56,147.25,165.57,147.31,164.49z"/>
			<path class="st3" d="M159.89,143.79c0.89-0.51,1.68-0.82,2.37-0.94c0.7-0.11,1.29-0.02,1.78,0.27c0.49,0.3,0.86,0.82,1.13,1.56
				c0.26,0.75,0.39,1.72,0.39,2.92c0,1.55-0.21,2.95-0.62,4.22c-0.41,1.26-1.01,2.38-1.77,3.36l2.49,5.93
				c0.04,0.1,0.06,0.2,0.06,0.3c0,0.19-0.04,0.37-0.13,0.56c-0.09,0.18-0.19,0.31-0.31,0.38l-2.74,1.58
				c-0.27,0.15-0.46,0.17-0.57,0.05c-0.12-0.12-0.21-0.25-0.27-0.4l-2.23-5.34l-1.85,1.07v6.63c0,0.23-0.05,0.46-0.16,0.68
				c-0.11,0.23-0.23,0.38-0.38,0.47l-2.64,1.52c-0.15,0.09-0.27,0.08-0.38-0.03c-0.11-0.1-0.16-0.27-0.16-0.5v-20.01
				c0-0.23,0.05-0.45,0.16-0.68s0.23-0.38,0.38-0.47L159.89,143.79z M157.62,154.49l2.27-1.31c0.56-0.33,1.03-0.76,1.4-1.3
				c0.37-0.54,0.55-1.25,0.55-2.12c0-0.87-0.18-1.36-0.55-1.48c-0.37-0.12-0.84-0.01-1.4,0.31l-2.27,1.31V154.49z"/>
		</g>
		<g>
			<path class="st20" d="M70.33,227.89c1.24-0.72,2.21-0.82,2.9-0.32c0.69,0.5,1.03,1.63,1.03,3.37c0,1.74-0.35,3.27-1.03,4.58
				c-0.69,1.32-1.66,2.33-2.9,3.05L67.87,240v5.29c0,0.17-0.04,0.35-0.12,0.52c-0.08,0.18-0.18,0.29-0.29,0.36l-1.25,0.72
				c-0.11,0.07-0.21,0.06-0.29-0.02c-0.08-0.08-0.12-0.21-0.12-0.38v-15.33c0-0.17,0.04-0.35,0.12-0.52
				c0.08-0.17,0.18-0.29,0.29-0.36L70.33,227.89z M67.87,237.03l2.39-1.38c0.59-0.34,1.05-0.79,1.4-1.34
				c0.35-0.56,0.52-1.28,0.52-2.17c0-0.88-0.17-1.4-0.52-1.54c-0.35-0.14-0.82-0.04-1.4,0.3l-2.39,1.38V237.03z"/>
			<path class="st20" d="M80.76,221.87c0.16-0.09,0.29-0.1,0.37-0.01c0.08,0.09,0.15,0.25,0.22,0.48l3.78,12.82
				c0.01,0.04,0.02,0.1,0.02,0.16c0,0.17-0.04,0.35-0.12,0.52c-0.08,0.18-0.18,0.3-0.29,0.36l-1.11,0.64
				c-0.21,0.12-0.35,0.13-0.43,0.05c-0.08-0.09-0.14-0.18-0.17-0.29l-0.66-2.25l-4.87,2.81l-0.66,3.02
				c-0.03,0.14-0.09,0.31-0.17,0.49c-0.08,0.18-0.23,0.33-0.43,0.45l-1.11,0.64c-0.11,0.06-0.21,0.06-0.29-0.02
				c-0.08-0.08-0.12-0.2-0.12-0.38c0-0.06,0-0.12,0.02-0.18L78.47,224c0.06-0.3,0.13-0.55,0.22-0.73c0.08-0.18,0.2-0.32,0.37-0.42
				L80.76,221.87z M81.6,231.8l-1.7-5.79l-1.7,7.74L81.6,231.8z"/>
			<path class="st20" d="M86.32,224.81c0.02-0.96,0.13-1.89,0.34-2.8c0.21-0.9,0.5-1.75,0.89-2.53c0.39-0.79,0.87-1.5,1.44-2.14
				c0.57-0.64,1.24-1.18,2-1.62c0.89-0.52,1.63-0.76,2.21-0.74c0.58,0.02,1.04,0.18,1.39,0.48c0.34,0.3,0.59,0.67,0.73,1.12
				c0.14,0.45,0.22,0.85,0.24,1.2c0.01,0.19-0.03,0.36-0.12,0.53c-0.09,0.17-0.19,0.29-0.3,0.35l-1.25,0.72
				c-0.11,0.07-0.2,0.07-0.27,0.03c-0.07-0.05-0.12-0.11-0.15-0.19c-0.02-0.05-0.07-0.16-0.16-0.32c-0.09-0.16-0.23-0.31-0.42-0.42
				c-0.19-0.12-0.44-0.18-0.75-0.19c-0.31,0-0.69,0.13-1.16,0.39c-0.77,0.44-1.39,1.12-1.85,2.03c-0.46,0.91-0.71,1.91-0.74,3
				c-0.02,0.61-0.03,1.26-0.03,1.95c0,0.69,0.01,1.33,0.03,1.92c0.03,1.3,0.28,2.11,0.74,2.43c0.46,0.33,1.08,0.27,1.85-0.18
				c0.38-0.22,0.73-0.49,1.05-0.8c0.32-0.31,0.59-0.67,0.82-1.09c0.23-0.42,0.41-0.9,0.54-1.44c0.13-0.54,0.19-1.15,0.19-1.83v-0.19
				l-1.88,1.09c-0.11,0.07-0.21,0.06-0.29-0.02c-0.08-0.08-0.12-0.21-0.12-0.38v-1.69c0-0.17,0.04-0.35,0.12-0.52
				c0.08-0.17,0.18-0.29,0.29-0.36l3.55-2.05c0.11-0.07,0.21-0.06,0.29,0.02c0.08,0.08,0.12,0.21,0.12,0.38v2.61
				c0,0.95-0.1,1.88-0.29,2.79c-0.2,0.91-0.49,1.77-0.88,2.57c-0.39,0.8-0.88,1.54-1.46,2.2c-0.59,0.66-1.27,1.22-2.05,1.67
				c-0.78,0.45-1.46,0.69-2.03,0.7c-0.58,0.02-1.05-0.15-1.43-0.5c-0.38-0.35-0.67-0.87-0.87-1.55c-0.2-0.68-0.31-1.49-0.33-2.43
				c-0.01-0.29-0.02-0.62-0.02-0.98c0-0.36-0.01-0.73-0.01-1.11c0-0.38,0-0.75,0.01-1.12C86.3,225.45,86.31,225.11,86.32,224.81z"/>
			<path class="st20" d="M105.19,221.41c0.11-0.07,0.21-0.06,0.29,0.02c0.08,0.08,0.12,0.21,0.12,0.38v1.68
				c0,0.17-0.04,0.35-0.12,0.52c-0.08,0.18-0.18,0.29-0.29,0.36l-6.77,3.91c-0.11,0.07-0.21,0.06-0.29-0.02
				c-0.08-0.08-0.12-0.21-0.12-0.38v-15.33c0-0.17,0.04-0.35,0.12-0.52c0.08-0.17,0.18-0.29,0.29-0.36l6.64-3.84
				c0.11-0.07,0.21-0.06,0.29,0.02c0.08,0.08,0.12,0.21,0.12,0.38v1.69c0,0.17-0.04,0.35-0.12,0.52c-0.08,0.17-0.18,0.29-0.29,0.36
				l-4.98,2.87v3.77l4.64-2.68c0.11-0.07,0.21-0.06,0.29,0.02c0.08,0.08,0.12,0.21,0.12,0.38v1.68c0,0.18-0.04,0.35-0.12,0.52
				c-0.08,0.17-0.18,0.29-0.29,0.36l-4.64,2.68v3.94L105.19,221.41z"/>
			<path class="st20" d="M118.81,216.52c-0.18,0.1-0.31,0.11-0.4,0.02c-0.09-0.09-0.16-0.16-0.2-0.22l-4.32-7.38v9.78
				c0,0.17-0.04,0.35-0.12,0.52c-0.08,0.18-0.18,0.29-0.29,0.36l-1.25,0.72c-0.11,0.07-0.21,0.06-0.29-0.02
				c-0.08-0.08-0.12-0.2-0.12-0.38v-15.33c0-0.17,0.04-0.35,0.12-0.52c0.08-0.17,0.18-0.29,0.29-0.36l1.08-0.62
				c0.17-0.1,0.31-0.11,0.4-0.02c0.09,0.09,0.16,0.16,0.2,0.22l4.32,7.38v-9.78c0-0.17,0.04-0.35,0.12-0.52
				c0.08-0.17,0.18-0.29,0.29-0.36l1.25-0.72c0.11-0.06,0.21-0.06,0.29,0.02c0.08,0.08,0.12,0.21,0.12,0.38v15.33
				c0,0.17-0.04,0.35-0.12,0.52c-0.08,0.18-0.18,0.29-0.29,0.36L118.81,216.52z"/>
			<path class="st20" d="M122.72,203.84c0.03-0.9,0.14-1.8,0.33-2.69c0.19-0.89,0.47-1.73,0.84-2.53c0.37-0.79,0.83-1.52,1.39-2.18
				c0.56-0.66,1.21-1.21,1.97-1.65c0.75-0.43,1.4-0.64,1.96-0.63c0.56,0.01,1.02,0.2,1.39,0.58c0.37,0.37,0.65,0.89,0.85,1.55
				c0.2,0.66,0.31,1.44,0.34,2.32c0.01,0.29,0.02,0.62,0.02,0.98c0,0.36,0.01,0.74,0.01,1.12c0,0.39,0,0.76-0.01,1.13
				c-0.01,0.37-0.01,0.7-0.02,1.01c-0.03,0.9-0.14,1.8-0.33,2.7c-0.19,0.89-0.47,1.74-0.84,2.53c-0.37,0.79-0.83,1.51-1.39,2.17
				c-0.56,0.65-1.22,1.2-1.96,1.63c-0.76,0.44-1.42,0.65-1.97,0.64c-0.56-0.01-1.02-0.2-1.39-0.56c-0.37-0.36-0.65-0.88-0.84-1.56
				c-0.19-0.67-0.3-1.44-0.33-2.31c-0.01-0.29-0.02-0.62-0.02-0.98c0-0.36-0.01-0.73-0.01-1.12c0-0.39,0-0.77,0.01-1.13
				C122.7,204.48,122.71,204.15,122.72,203.84z M129.71,199.93c-0.04-1.12-0.28-1.86-0.72-2.23c-0.44-0.37-1.01-0.35-1.73,0.06
				c-0.72,0.42-1.3,1.06-1.74,1.94c-0.44,0.88-0.68,1.9-0.72,3.06c-0.02,0.61-0.03,1.29-0.03,2.02s0.01,1.4,0.03,1.99
				c0.04,1.12,0.28,1.86,0.72,2.22c0.44,0.37,1.01,0.34,1.74-0.07c0.72-0.42,1.3-1.06,1.73-1.93c0.44-0.87,0.68-1.89,0.72-3.05
				c0.02-0.61,0.03-1.29,0.03-2.02C129.74,201.18,129.73,200.52,129.71,199.93z"/>
			<path class="st20" d="M141.17,186.99c0.11-0.07,0.21-0.06,0.29,0.02c0.08,0.08,0.12,0.21,0.12,0.38v1.68
				c0,0.17-0.04,0.35-0.12,0.52c-0.08,0.17-0.18,0.29-0.29,0.36l-2.77,1.6v13.01c0,0.17-0.04,0.35-0.12,0.52
				c-0.08,0.18-0.18,0.3-0.29,0.36l-1.25,0.72c-0.11,0.07-0.21,0.06-0.29-0.02c-0.08-0.08-0.12-0.2-0.12-0.38v-13.01l-2.77,1.6
				c-0.11,0.07-0.21,0.06-0.29-0.02c-0.08-0.08-0.12-0.2-0.12-0.38v-1.69c0-0.17,0.04-0.35,0.12-0.52c0.08-0.17,0.18-0.29,0.29-0.36
				L141.17,186.99z"/>
			<path class="st20" d="M154.03,179.57c0.11-0.07,0.21-0.06,0.29,0.02c0.08,0.08,0.12,0.21,0.12,0.38v1.69
				c0,0.17-0.04,0.35-0.12,0.52c-0.08,0.17-0.18,0.29-0.29,0.36l-4.92,2.84v4.6l4.61-2.66c0.11-0.07,0.21-0.06,0.29,0.02
				c0.08,0.08,0.12,0.21,0.12,0.38v1.69c0,0.17-0.04,0.35-0.12,0.52c-0.08,0.17-0.18,0.29-0.29,0.36l-4.61,2.66v5.43
				c0,0.17-0.04,0.35-0.12,0.52c-0.08,0.18-0.18,0.29-0.29,0.36l-1.25,0.72c-0.11,0.07-0.21,0.06-0.29-0.02
				c-0.08-0.08-0.12-0.21-0.12-0.38v-15.33c0-0.17,0.04-0.35,0.12-0.52c0.08-0.17,0.18-0.29,0.29-0.36L154.03,179.57z"/>
			<path class="st20" d="M156.13,184.55c0.03-0.9,0.14-1.8,0.33-2.7c0.19-0.89,0.47-1.73,0.84-2.53c0.37-0.79,0.83-1.52,1.39-2.18
				c0.56-0.66,1.21-1.21,1.97-1.65c0.75-0.43,1.4-0.64,1.96-0.63c0.56,0.01,1.02,0.2,1.39,0.57c0.37,0.37,0.65,0.89,0.85,1.55
				c0.2,0.66,0.31,1.44,0.34,2.32c0.01,0.29,0.02,0.62,0.02,0.98c0.01,0.36,0.01,0.74,0.01,1.12s0,0.77-0.01,1.13
				c0,0.37-0.01,0.71-0.02,1.01c-0.03,0.9-0.14,1.8-0.33,2.69c-0.19,0.89-0.47,1.74-0.84,2.53c-0.37,0.79-0.83,1.51-1.4,2.17
				c-0.56,0.66-1.22,1.2-1.96,1.63c-0.76,0.44-1.42,0.65-1.97,0.64c-0.55-0.01-1.02-0.2-1.39-0.56c-0.37-0.36-0.65-0.88-0.84-1.56
				c-0.19-0.67-0.3-1.44-0.33-2.31c-0.01-0.3-0.02-0.62-0.02-0.98c0-0.36-0.01-0.73-0.01-1.12c0-0.39,0-0.77,0.01-1.13
				C156.11,185.19,156.12,184.86,156.13,184.55z M163.11,180.64c-0.04-1.12-0.28-1.86-0.72-2.23c-0.44-0.37-1.01-0.35-1.73,0.06
				c-0.72,0.42-1.3,1.06-1.74,1.94c-0.44,0.88-0.68,1.9-0.72,3.06c-0.02,0.61-0.03,1.29-0.03,2.02c0,0.73,0.01,1.4,0.03,1.99
				c0.04,1.11,0.28,1.85,0.72,2.22c0.44,0.37,1.01,0.34,1.74-0.08c0.72-0.41,1.3-1.06,1.73-1.93c0.44-0.87,0.68-1.88,0.72-3.05
				c0.02-0.61,0.03-1.29,0.03-2.02C163.14,181.89,163.13,181.23,163.11,180.64z"/>
			<path class="st20" d="M175.96,166.91c0.11-0.06,0.21-0.06,0.29,0.02c0.08,0.08,0.12,0.21,0.12,0.38v9.73
				c0,0.98-0.09,1.92-0.28,2.82c-0.18,0.9-0.46,1.74-0.83,2.52c-0.37,0.78-0.83,1.49-1.39,2.12c-0.56,0.63-1.2,1.15-1.93,1.57
				c-0.74,0.43-1.39,0.65-1.93,0.65c-0.55,0.01-1.01-0.16-1.38-0.52c-0.37-0.36-0.65-0.88-0.83-1.57c-0.18-0.69-0.27-1.52-0.27-2.5
				v-9.73c0-0.17,0.04-0.35,0.12-0.52c0.08-0.17,0.18-0.29,0.29-0.36l1.25-0.72c0.11-0.07,0.21-0.06,0.29,0.02
				c0.08,0.08,0.12,0.21,0.12,0.38v9.61c0,0.65,0.06,1.17,0.17,1.56c0.11,0.39,0.27,0.68,0.48,0.85c0.21,0.17,0.45,0.25,0.74,0.21
				c0.29-0.03,0.6-0.15,0.94-0.34c0.34-0.2,0.66-0.45,0.95-0.75c0.29-0.3,0.54-0.66,0.75-1.07c0.21-0.41,0.37-0.88,0.49-1.41
				c0.12-0.53,0.18-1.11,0.18-1.76v-9.61c0-0.17,0.04-0.35,0.12-0.52c0.08-0.17,0.18-0.29,0.29-0.36L175.96,166.91z"/>
			<path class="st20" d="M186.09,177.68c-0.18,0.1-0.31,0.11-0.4,0.02c-0.09-0.09-0.16-0.16-0.2-0.22l-4.32-7.38v9.78
				c0,0.17-0.04,0.35-0.12,0.52c-0.08,0.18-0.18,0.29-0.29,0.36l-1.25,0.72c-0.11,0.07-0.21,0.06-0.29-0.02
				c-0.08-0.08-0.12-0.2-0.12-0.38v-15.33c0-0.17,0.04-0.35,0.12-0.52c0.08-0.17,0.18-0.29,0.29-0.36l1.08-0.62
				c0.17-0.1,0.31-0.11,0.4-0.02c0.09,0.09,0.16,0.16,0.2,0.22l4.32,7.38v-9.78c0-0.17,0.04-0.35,0.12-0.52
				c0.08-0.17,0.18-0.29,0.29-0.36l1.25-0.72c0.11-0.07,0.21-0.06,0.29,0.02c0.08,0.08,0.12,0.21,0.12,0.38v15.33
				c0,0.17-0.04,0.35-0.12,0.52c-0.08,0.18-0.18,0.29-0.29,0.36L186.09,177.68z"/>
			<path class="st20" d="M194.59,156.15c0.76-0.44,1.42-0.67,1.98-0.68c0.56-0.01,1.03,0.15,1.4,0.51c0.37,0.35,0.66,0.87,0.86,1.57
				c0.2,0.69,0.32,1.52,0.36,2.5c0.04,1.15,0.04,2.32,0,3.51c-0.04,1.02-0.16,1.99-0.36,2.91c-0.2,0.92-0.49,1.78-0.86,2.56
				c-0.37,0.78-0.83,1.49-1.38,2.11c-0.55,0.63-1.19,1.15-1.93,1.58l-3.88,2.24c-0.11,0.07-0.21,0.06-0.29-0.02
				c-0.08-0.08-0.12-0.2-0.12-0.38v-15.33c0-0.17,0.04-0.35,0.12-0.52c0.08-0.17,0.18-0.29,0.29-0.36L194.59,156.15z M197.12,161.24
				c-0.02-0.49-0.08-0.93-0.19-1.3c-0.11-0.37-0.27-0.66-0.48-0.86c-0.21-0.2-0.48-0.3-0.79-0.3c-0.32,0-0.7,0.13-1.14,0.39
				l-2.06,1.19v10.68l2.14-1.24c0.42-0.24,0.79-0.54,1.09-0.9c0.31-0.36,0.57-0.76,0.77-1.19c0.2-0.43,0.36-0.9,0.47-1.41
				c0.11-0.51,0.17-1.02,0.19-1.54C197.16,163.56,197.16,162.39,197.12,161.24z"/>
		</g>
	</g>
</g>
<g id="Speech_Bubble">
	<g id="Speech_Bubble_1_">
		<g id="Speech_Bubble_2_">
			<g id="XMLID_867_">
				<path id="XMLID_911_" class="st5" d="M397.11,85.78l-76.08,43.87c-0.79,0.46-1.43,1.57-1.43,2.48v45.16
					c0,0.91,0.64,2.02,1.44,2.47l5.13,2.88c0.8,0.45,2.08,0.44,2.87-0.01l76.08-43.87c0.79-0.46,1.43-1.57,1.43-2.48V91.1
					c0-0.91-0.64-2.02-1.44-2.47l-5.13-2.88C399.19,85.31,397.9,85.32,397.11,85.78z"/>
				<path id="XMLID_908_" class="st5" d="M327.61,181.79v-45.16c0-0.91,0.64-2.02,1.43-2.48l76.08-43.87
					c0.79-0.46,1.43-0.09,1.43,0.83v45.16c0,0.91-0.64,2.02-1.43,2.48l-76.08,43.87C328.25,183.07,327.61,182.7,327.61,181.79z"/>
				<path id="XMLID_900_" class="st17" d="M329.04,182.62c-0.84,0.48-2.15,0.46-2.87,0.02l-5.13-2.88
					c-0.79-0.44-1.44-1.55-1.44-2.46v-45.17c0-0.48,0.18-1,0.46-1.46l7.98,4.55c-0.26,0.44-0.42,0.95-0.42,1.41v45.16
					C327.61,182.62,328.2,183.11,329.04,182.62z"/>
				<path id="XMLID_897_" class="st22" d="M406.53,90.84c-0.11-0.72-0.7-0.98-1.42-0.57l-76.08,43.87c-0.4,0.23-0.75,0.62-1.01,1.07
					l-7.98-4.55c0.26-0.43,0.6-0.8,0.99-1.02l76.08-43.87c0.79-0.46,2.07-0.46,2.87-0.01l5.13,2.87
					C405.83,89.05,406.43,89.99,406.53,90.84z"/>
			</g>
			<g>
				<path class="st5" d="M319.6,151.82l-11.52,11.72c-0.61,0.63-0.4,1.56,0.22,1.96c0.24,0.15,7.98,4.59,7.98,4.59l11.34-13.65
					L319.6,151.82z"/>
				<path class="st6" d="M319.6,151.82l-11.52,11.72c-0.61,0.63-0.4,1.56,0.22,1.96c0.24,0.15,7.98,4.59,7.98,4.59l11.34-13.65
					L319.6,151.82z"/>
				<path class="st5" d="M327.61,156.43l-11.52,11.72c-0.85,0.86-0.12,2.32,1.08,2.14l10.44-1.51
					C328.73,168.79,328.73,156.43,327.61,156.43z"/>
			</g>
		</g>
		<g>
			<path class="st3" d="M335.15,148.72c0.05-1.34,0.23-2.68,0.56-4.03c0.33-1.35,0.79-2.62,1.39-3.82c0.6-1.2,1.33-2.3,2.19-3.3
				c0.86-1,1.85-1.82,2.98-2.47c1.11-0.64,2.1-0.96,2.96-0.96c0.87,0,1.6,0.26,2.2,0.77c0.6,0.51,1.06,1.25,1.39,2.22
				c0.33,0.97,0.51,2.1,0.56,3.38c0.03,0.99,0.04,2.03,0.04,3.13c0,1.1-0.02,2.14-0.04,3.12c-0.05,1.34-0.23,2.68-0.56,4.03
				c-0.33,1.35-0.79,2.63-1.39,3.84c-0.6,1.21-1.33,2.31-2.2,3.31c-0.87,0.99-1.85,1.81-2.96,2.45c-1.12,0.65-2.12,0.98-2.98,0.98
				c-0.86,0-1.59-0.25-2.19-0.77c-0.6-0.52-1.06-1.26-1.39-2.23c-0.33-0.97-0.51-2.1-0.56-3.38c-0.03-0.94-0.05-1.96-0.05-3.06
				C335.11,150.81,335.12,149.74,335.15,148.72z M345.16,149.01c0.01-0.43,0.03-0.91,0.04-1.43c0.01-0.52,0.02-1.05,0.02-1.59
				c0-0.54-0.01-1.05-0.02-1.55c-0.01-0.49-0.03-0.94-0.04-1.32c-0.03-0.57-0.11-1.06-0.24-1.48c-0.13-0.42-0.31-0.74-0.55-0.96
				c-0.24-0.23-0.53-0.34-0.88-0.35c-0.35-0.01-0.76,0.12-1.23,0.39c-0.47,0.27-0.88,0.61-1.23,1.03c-0.35,0.41-0.64,0.87-0.88,1.37
				c-0.24,0.5-0.42,1.03-0.55,1.6c-0.13,0.57-0.21,1.15-0.24,1.75c-0.03,0.42-0.05,0.88-0.06,1.38c-0.01,0.51-0.01,1.03-0.01,1.57
				s0,1.06,0.01,1.57c0.01,0.51,0.03,0.97,0.06,1.37c0.06,1.14,0.32,1.95,0.79,2.46c0.46,0.5,1.17,0.49,2.11-0.06
				c0.94-0.54,1.64-1.33,2.1-2.37C344.82,151.35,345.09,150.23,345.16,149.01z"/>
			<path class="st3" d="M363.9,137.07c0.01,0.34,0.02,0.79,0.02,1.34s-0.01,1-0.02,1.37c-0.03,1.14-0.2,2.29-0.5,3.45
				c-0.3,1.16-0.72,2.26-1.25,3.3c-0.53,1.04-1.17,1.99-1.93,2.85c-0.75,0.86-1.59,1.55-2.52,2.09c-0.93,0.54-1.77,0.81-2.52,0.82
				c-0.75,0.01-1.39-0.2-1.93-0.63c-0.53-0.43-0.95-1.05-1.25-1.86c-0.3-0.81-0.47-1.76-0.5-2.87c-0.01-0.34-0.02-0.79-0.02-1.34
				c0-0.55,0.01-1,0.02-1.37c0.02-1.13,0.17-2.28,0.48-3.44c0.3-1.16,0.73-2.26,1.27-3.31c0.54-1.05,1.19-2.01,1.94-2.87
				c0.75-0.87,1.59-1.57,2.52-2.1c0.93-0.54,1.77-0.8,2.52-0.8c0.75,0,1.4,0.21,1.94,0.64c0.54,0.43,0.96,1.04,1.25,1.86
				C363.71,135.01,363.87,135.96,363.9,137.07z M355.61,144.39c0.05,0.86,0.25,1.44,0.63,1.73c0.37,0.29,0.86,0.26,1.47-0.09
				c0.61-0.35,1.1-0.89,1.47-1.6c0.37-0.72,0.58-1.53,0.63-2.45c0.03-0.37,0.05-0.78,0.05-1.22c0-0.44-0.01-0.83-0.05-1.17
				c-0.05-0.86-0.25-1.44-0.63-1.73c-0.37-0.29-0.86-0.26-1.47,0.09c-0.61,0.35-1.1,0.89-1.47,1.6c-0.37,0.72-0.58,1.53-0.63,2.45
				c-0.03,0.37-0.05,0.78-0.05,1.22C355.56,143.67,355.57,144.06,355.61,144.39z"/>
			<path class="st3" d="M373.44,142.38c-0.44,0.25-0.83,0.41-1.16,0.46c-0.33,0.05-0.62,0.04-0.87-0.03
				c-0.24-0.07-0.45-0.18-0.62-0.33c-0.17-0.15-0.3-0.3-0.41-0.45v7.48c0,0.26-0.06,0.51-0.18,0.77c-0.12,0.26-0.27,0.43-0.43,0.53
				l-2.87,1.66c-0.17,0.1-0.31,0.09-0.43-0.03c-0.12-0.12-0.18-0.3-0.18-0.56v-23.03c0-0.26,0.06-0.51,0.18-0.77
				c0.12-0.26,0.27-0.43,0.43-0.53l2.76-1.59c0.17-0.1,0.31-0.09,0.43,0.03c0.12,0.12,0.18,0.3,0.18,0.56v0.81
				c0.14-0.31,0.29-0.64,0.44-0.99c0.16-0.35,0.36-0.69,0.59-1.03c0.24-0.33,0.52-0.67,0.87-0.99c0.34-0.33,0.76-0.63,1.27-0.92
				c0.68-0.39,1.33-0.61,1.94-0.64c0.61-0.03,1.14,0.15,1.6,0.55c0.46,0.4,0.82,1.03,1.11,1.87c0.28,0.84,0.44,1.95,0.47,3.31
				c0.01,0.34,0.02,0.81,0.02,1.41c0,0.6-0.01,1.08-0.02,1.43c-0.03,1.4-0.19,2.68-0.47,3.85c-0.28,1.17-0.65,2.22-1.11,3.15
				c-0.46,0.93-0.99,1.73-1.6,2.41C374.76,141.45,374.12,141.98,373.44,142.38z M374.46,133.29c0.05-0.68,0.05-1.34,0-1.97
				c-0.05-0.79-0.22-1.4-0.52-1.84c-0.3-0.43-0.81-0.44-1.53-0.03c-0.33,0.19-0.62,0.44-0.87,0.75c-0.24,0.3-0.45,0.64-0.61,1
				c-0.16,0.36-0.28,0.73-0.38,1.11c-0.09,0.38-0.15,0.76-0.18,1.12c-0.03,0.37-0.05,0.79-0.05,1.26s0.01,0.87,0.05,1.2
				c0.03,0.33,0.09,0.64,0.18,0.91c0.09,0.27,0.22,0.5,0.38,0.68c0.16,0.18,0.36,0.28,0.61,0.3c0.24,0.02,0.53-0.06,0.87-0.25
				c0.71-0.41,1.22-1.01,1.53-1.79C374.24,134.95,374.42,134.14,374.46,133.29z"/>
			<path class="st3" d="M387.66,128.34c0-0.26-0.06-0.42-0.17-0.5c-0.11-0.07-0.31-0.08-0.58-0.02c-0.27,0.07-0.64,0.18-1.08,0.34
				c-0.45,0.17-1.01,0.35-1.68,0.55c-1.15,0.34-2.04,0.2-2.67-0.43c-0.62-0.62-0.93-1.73-0.93-3.32c0-0.8,0.13-1.61,0.39-2.43
				c0.26-0.83,0.62-1.63,1.08-2.42c0.46-0.78,1.02-1.51,1.68-2.18c0.65-0.67,1.38-1.24,2.19-1.7c0.79-0.46,1.52-0.73,2.19-0.82
				c0.67-0.09,1.25-0.05,1.73,0.12c0.49,0.18,0.87,0.48,1.15,0.91c0.28,0.43,0.44,0.94,0.47,1.5c0.01,0.25-0.04,0.5-0.17,0.77
				c-0.13,0.26-0.28,0.44-0.44,0.54l-2.71,1.57c-0.17,0.1-0.3,0.12-0.4,0.05c-0.1-0.06-0.22-0.12-0.35-0.18
				c-0.14-0.06-0.32-0.09-0.53-0.08c-0.22,0.01-0.53,0.13-0.92,0.36c-0.35,0.2-0.64,0.45-0.88,0.74c-0.24,0.29-0.35,0.61-0.35,0.96
				c0,0.26,0.04,0.44,0.11,0.53c0.08,0.1,0.23,0.12,0.46,0.07c0.23-0.05,0.55-0.15,0.96-0.29c0.41-0.14,0.95-0.33,1.62-0.55
				c1.38-0.45,2.39-0.31,3.02,0.42c0.63,0.72,0.95,1.79,0.95,3.19c0,0.8-0.13,1.61-0.39,2.45c-0.26,0.84-0.64,1.67-1.14,2.48
				c-0.5,0.82-1.11,1.58-1.82,2.3c-0.72,0.72-1.53,1.34-2.44,1.87c-0.91,0.53-1.71,0.83-2.41,0.91c-0.69,0.08-1.27,0.02-1.74-0.2
				c-0.47-0.22-0.83-0.55-1.08-0.99c-0.25-0.44-0.39-0.93-0.42-1.48c-0.01-0.25,0.04-0.5,0.17-0.77c0.13-0.26,0.28-0.44,0.44-0.54
				l2.83-1.63c0.17-0.1,0.29-0.1,0.36-0.02c0.08,0.09,0.18,0.17,0.3,0.25c0.12,0.08,0.3,0.12,0.52,0.12c0.23,0,0.57-0.14,1.03-0.4
				c0.46-0.26,0.85-0.58,1.19-0.97C387.5,129.05,387.66,128.69,387.66,128.34z"/>
			<path class="st3" d="M398.17,119.25c0,0.26-0.06,0.52-0.18,0.77c-0.12,0.26-0.27,0.43-0.43,0.53l-2.87,1.66
				c-0.17,0.1-0.31,0.09-0.43-0.03c-0.12-0.12-0.18-0.3-0.18-0.56v-15.13c0-0.26,0.06-0.51,0.18-0.77c0.12-0.26,0.27-0.43,0.43-0.53
				l2.87-1.66c0.17-0.1,0.31-0.09,0.43,0.03c0.12,0.12,0.18,0.3,0.18,0.56V119.25z M398.17,126.8c0,0.26-0.06,0.51-0.18,0.77
				c-0.12,0.26-0.27,0.43-0.43,0.53l-2.87,1.66c-0.17,0.1-0.31,0.09-0.43-0.03c-0.12-0.12-0.18-0.3-0.18-0.56v-3.55
				c0-0.26,0.06-0.51,0.18-0.77c0.12-0.26,0.27-0.43,0.43-0.53l2.87-1.66c0.17-0.1,0.31-0.09,0.43,0.03
				c0.12,0.12,0.18,0.3,0.18,0.56V126.8z"/>
		</g>
	</g>
</g>

</svg>
